<svg height="16" viewBox="0 0 12 12" width="16" xmlns="http://www.w3.org/2000/svg"><g fill="none" stroke="#000" stroke-linecap="round" stroke-linejoin="round" stroke-width=".6"><path d="m.99993842 7.7502192c.33173148-.3311485.78123048-.517711 1.24996878-.517711s.9188203.1865625 1.2499688.517711c.3317314.3317314.7812304.5177109 1.2499687.5177109s.9188203-.1859795 1.2499688-.5177109c.3317314-.3311485.7812304-.517711 1.2499687-.517711s.9188203.1865625 1.2499688.517711c.3317314.3317314.7812304.5177109 1.2499687.5177109s.9188203-.1859795 1.2499683-.5177109"/><path d="m.99993842 4.2497817c.33173148-.3311485.78123048-.517711 1.24996878-.517711s.9188203.1865625 1.2499688.517711c.3317314.3317314.7812304.5177109 1.2499687.5177109s.9188203-.1859795 1.2499688-.5177109c.3317314-.3311485.7812304-.517711 1.2499687-.517711s.9188203.1865625 1.2499688.517711c.3317314.3317314.7812304.5177109 1.2499687.5177109s.9188203-.1859795 1.2499683-.5177109"/></g></svg>