<svg xmlns="http://www.w3.org/2000/svg" xmlns:svg="http://www.w3.org/2000/svg" id="svg9" width="16" height="16" version="1.1" viewBox="0 0 12 12"><metadata id="metadata15"/><defs id="defs13"><clipPath id="clip1"><path id="path2-3" d="M 0,0 H 80.398438 V 80.398438 H 0 Z m 0,0"/></clipPath></defs><g id="g4149"><path id="path7" d="M 0.99993842,7.7502192 C 1.3316699,7.4190707 1.7811689,7.2325082 2.2499072,7.2325082 c 0.4687383,0 0.9188203,0.1865625 1.2499688,0.517711 0.3317314,0.3317314 0.7812304,0.5177109 1.2499687,0.5177109 0.4687383,0 0.9188203,-0.1859795 1.2499688,-0.5177109 0.3317314,-0.3311485 0.7812304,-0.517711 1.2499687,-0.517711 0.4687383,0 0.9188203,0.1865625 1.2499688,0.517711 0.3317314,0.3317314 0.7812304,0.5177109 1.2499687,0.5177109 0.4687383,0 0.9188203,-0.1859795 1.2499683,-0.5177109" style="clip-rule:nonzero;fill:none;stroke:#000;stroke-width:.59999996;stroke-linecap:round;stroke-linejoin:round;stroke-miterlimit:4;stroke-dasharray:none;stroke-opacity:1"/><path id="path9" d="M 0.99993842,4.2497817 C 1.3316699,3.9186332 1.7811689,3.7320707 2.2499072,3.7320707 c 0.4687383,0 0.9188203,0.1865625 1.2499688,0.517711 0.3317314,0.3317314 0.7812304,0.5177109 1.2499687,0.5177109 0.4687383,0 0.9188203,-0.1859795 1.2499688,-0.5177109 0.3317314,-0.3311485 0.7812304,-0.517711 1.2499687,-0.517711 0.4687383,0 0.9188203,0.1865625 1.2499688,0.517711 0.3317314,0.3317314 0.7812304,0.5177109 1.2499687,0.5177109 0.4687383,0 0.9188203,-0.1859795 1.2499683,-0.5177109" style="clip-rule:nonzero;fill:none;stroke:#000;stroke-width:.59999996;stroke-linecap:round;stroke-linejoin:round;stroke-miterlimit:4;stroke-dasharray:none;stroke-opacity:1"/></g></svg>