<svg height="16" viewBox="0 0 12 12" width="16" xmlns="http://www.w3.org/2000/svg" xmlns:xlink="http://www.w3.org/1999/xlink"><clipPath id="a"><path d="m0 0h80.398438v80.398438h-80.398438zm0 0"/></clipPath><g style="clip-path:url(#a);fill:none;stroke:#000;stroke-width:40.201005;stroke-linecap:round;stroke-linejoin:round" transform="matrix(.14925 0 0 .14925 .000267 .150267)"><path d="m116.05469 451.07031c-31.406252 31.40625-49.062502 74.02344-49.062502 118.4375s17.65625 87.03125 49.062502 118.4375c31.40625 31.40625 74.02343 49.0625 118.4375 49.0625 92.5 0 167.5-75 167.5-167.5v-502.499998" transform="matrix(.1 0 0 -.1 0 80.4)"/><path d="m401.99219 569.50781c0 92.5 75 167.5 167.5 167.5 44.41406 0 87.03125-17.65625 118.4375-49.0625s49.0625-74.02344 49.0625-118.4375-17.65625-87.03125-49.0625-118.4375" transform="matrix(.1 0 0 -.1 0 80.4)"/></g></svg>