<svg xmlns="http://www.w3.org/2000/svg" xmlns:svg="http://www.w3.org/2000/svg" id="svg9" width="16" height="16" version="1.1" viewBox="0 0 12 12"><metadata id="metadata15"/><defs id="defs13"><clipPath id="clip1"><path id="path2-3" d="M 0,0 H 80.398438 V 80.398438 H 0 Z m 0,0"/></clipPath></defs><g id="surface1" transform="matrix(0.14925,0,0,0.14925,2.6657917e-4,0.15026658)" style="stroke:#000;stroke-width:4.0201005;stroke-miterlimit:4;stroke-dasharray:none;stroke-opacity:1;stroke-linejoin:round;stroke-linecap:round"><g style="clip-rule:nonzero;stroke:#000;stroke-width:4.0201005;stroke-miterlimit:4;stroke-dasharray:none;stroke-opacity:1;stroke-linejoin:round;stroke-linecap:round" id="g11" clip-path="url(#clip1)"><path style="fill:none;stroke:#000;stroke-width:40.20100503;stroke-linecap:round;stroke-linejoin:round;stroke-miterlimit:4;stroke-dasharray:none;stroke-opacity:1" id="path7" d="m 116.05469,451.07031 c -31.406252,31.40625 -49.062502,74.02344 -49.062502,118.4375 0,44.41406 17.65625,87.03125 49.062502,118.4375 31.40625,31.40625 74.02343,49.0625 118.4375,49.0625 92.5,0 167.5,-75 167.5,-167.5 V 67.007812" transform="matrix(0.1,0,0,-0.1,0,80.4)"/><path style="fill:none;stroke:#000;stroke-width:40.20100503;stroke-linecap:round;stroke-linejoin:round;stroke-miterlimit:4;stroke-dasharray:none;stroke-opacity:1" id="path9" d="m 401.99219,569.50781 c 0,92.5 75,167.5 167.5,167.5 44.41406,0 87.03125,-17.65625 118.4375,-49.0625 31.40625,-31.40625 49.0625,-74.02344 49.0625,-118.4375 0,-44.41406 -17.65625,-87.03125 -49.0625,-118.4375" transform="matrix(0.1,0,0,-0.1,0,80.4)"/></g></g></svg>