<svg height="16" viewBox="0 0 12 12" width="16" xmlns="http://www.w3.org/2000/svg" xmlns:xlink="http://www.w3.org/1999/xlink"><clipPath id="a"><path d="m0 0h80.398438v80.398438h-80.398438zm0 0"/></clipPath><g style="clip-path:url(#a);fill:none;stroke:#000;stroke-width:40.201005;stroke-linecap:round;stroke-linejoin:round" transform="matrix(.14925 0 0 .14925 .000267 .000267)"><path d="m736.99219 402.00781c0 185-149.96094 335-335 335-88.82813 0-174.0625-35.3125-236.875-98.125" transform="matrix(.1 0 0 -.1 0 80.4)"/><path d="m736.99219 402.00781c0 61.67969-50 111.67969-111.67969 111.67969-61.64063 0-111.64063-50-111.64063-111.67969s50-111.67969 111.64063-111.67969c61.67969 0 111.67969 50 111.67969 111.67969zm0 0" transform="matrix(.1 0 0 -.1 0 80.4)"/><path d="m66.992188 402.00781c0-185.03906 150.000002-334.999998 335.000002-334.999998 88.86718 0 174.0625 35.273438 236.875 98.124998" transform="matrix(.1 0 0 -.1 0 80.4)"/><path d="m66.992188 402.00781c0-61.67969 50.000002-111.67969 111.679682-111.67969 61.67969 0 111.64063 50 111.64063 111.67969s-49.96094 111.67969-111.64063 111.67969c-61.67968 0-111.679682-50-111.679682-111.67969zm0 0" transform="matrix(.1 0 0 -.1 0 80.4)"/></g></svg>