<svg xmlns="http://www.w3.org/2000/svg" xmlns:svg="http://www.w3.org/2000/svg" id="svg9" width="16" height="16" version="1.1" viewBox="0 0 12 12"><metadata id="metadata15"/><defs id="defs13"><clipPath id="clip1"><path id="path2-5" d="M 0,0 H 80.398438 V 80.398438 H 0 Z m 0,0"/></clipPath></defs><g id="surface1" transform="matrix(0.14925,0,0,0.14925,2.6657917e-4,2.6657918e-4)" style="stroke:#000;stroke-width:4.0201005;stroke-miterlimit:4;stroke-dasharray:none;stroke-opacity:1;stroke-linejoin:round;stroke-linecap:round"><g style="clip-rule:nonzero;stroke:#000;stroke-width:4.0201005;stroke-miterlimit:4;stroke-dasharray:none;stroke-opacity:1;stroke-linejoin:round;stroke-linecap:round" id="g15" clip-path="url(#clip1)"><path style="fill:none;stroke:#000;stroke-width:40.20100503;stroke-linecap:round;stroke-linejoin:round;stroke-miterlimit:4;stroke-dasharray:none;stroke-opacity:1" id="path7" d="m 736.99219,402.00781 c 0,185 -149.96094,335 -335,335 -88.82813,0 -174.0625,-35.3125 -236.875,-98.125" transform="matrix(0.1,0,0,-0.1,0,80.4)"/><path style="fill:none;stroke:#000;stroke-width:40.20100503;stroke-linecap:round;stroke-linejoin:round;stroke-miterlimit:4;stroke-dasharray:none;stroke-opacity:1" id="path9" d="m 736.99219,402.00781 c 0,61.67969 -50,111.67969 -111.67969,111.67969 -61.64063,0 -111.64063,-50 -111.64063,-111.67969 0,-61.67969 50,-111.67969 111.64063,-111.67969 61.67969,0 111.67969,50 111.67969,111.67969 z m 0,0" transform="matrix(0.1,0,0,-0.1,0,80.4)"/><path style="fill:none;stroke:#000;stroke-width:40.20100503;stroke-linecap:round;stroke-linejoin:round;stroke-miterlimit:4;stroke-dasharray:none;stroke-opacity:1" id="path11" d="m 66.992188,402.00781 c 0,-185.03906 150.000002,-334.999998 335.000002,-334.999998 88.86718,0 174.0625,35.273438 236.875,98.124998" transform="matrix(0.1,0,0,-0.1,0,80.4)"/><path style="fill:none;stroke:#000;stroke-width:40.20100503;stroke-linecap:round;stroke-linejoin:round;stroke-miterlimit:4;stroke-dasharray:none;stroke-opacity:1" id="path13" d="m 66.992188,402.00781 c 0,-61.67969 50.000002,-111.67969 111.679682,-111.67969 61.67969,0 111.64063,50 111.64063,111.67969 0,61.67969 -49.96094,111.67969 -111.64063,111.67969 -61.67968,0 -111.679682,-50 -111.679682,-111.67969 z m 0,0" transform="matrix(0.1,0,0,-0.1,0,80.4)"/></g></g></svg>