<svg height="16" viewBox="0 0 12 12" width="16" xmlns="http://www.w3.org/2000/svg"><g fill="none" stroke="#000" stroke-linecap="round" stroke-linejoin="round" stroke-width=".6"><path d="m4.7500312 7.2499692c0-.6902813-.5596875-1.2499688-1.2499687-1.2499688s-1.2499687.5596875-1.2499687 1.2499688c0 .6902812.5596875 1.2499687 1.2499687 1.2499687s1.2499687-.5596875 1.2499687-1.2499687zm0 0"/><path d="m4.7500312 7.2499692c0-1.2499688-1.2499687-2.4999375-1.2499687-3.7499063 0-1.3805625 1.119375-2.4999375 2.4999375-2.4999375s2.4999375 1.119375 2.4999375 2.4999375c0 2.4999375-1.2499688 3.7499063-1.2499688 6.2498438 0 .6902813.5596875 1.2499683 1.2499688 1.2499683s1.2499687-.559687 1.2499687-1.2499683"/></g></svg>