<svg xmlns="http://www.w3.org/2000/svg" xmlns:svg="http://www.w3.org/2000/svg" id="svg9" width="16" height="16" version="1.1" viewBox="0 0 12 12"><metadata id="metadata15"/><defs id="defs13"><clipPath id="clip1"><path id="path2-3" d="M 0,0 H 80.398438 V 80.398438 H 0 Z m 0,0"/></clipPath></defs><g id="g824"><path id="path7" d="m 4.7500312,7.2499692 c 0,-0.6902813 -0.5596875,-1.2499688 -1.2499687,-1.2499688 -0.6902812,0 -1.2499687,0.5596875 -1.2499687,1.2499688 0,0.6902812 0.5596875,1.2499687 1.2499687,1.2499687 0.6902812,0 1.2499687,-0.5596875 1.2499687,-1.2499687 z m 0,0" style="clip-rule:nonzero;fill:none;stroke:#000;stroke-width:.59999996;stroke-linecap:round;stroke-linejoin:round;stroke-miterlimit:4;stroke-dasharray:none;stroke-opacity:1"/><path id="path9" d="m 4.7500312,7.2499692 c 0,-1.2499688 -1.2499687,-2.4999375 -1.2499687,-3.7499063 0,-1.3805625 1.119375,-2.4999375 2.4999375,-2.4999375 1.3805625,0 2.4999375,1.119375 2.4999375,2.4999375 0,2.4999375 -1.2499688,3.7499063 -1.2499688,6.2498438 0,0.6902813 0.5596875,1.2499683 1.2499688,1.2499683 0.6902813,0 1.2499687,-0.559687 1.2499687,-1.2499683" style="clip-rule:nonzero;fill:none;stroke:#000;stroke-width:.59999996;stroke-linecap:round;stroke-linejoin:round;stroke-miterlimit:4;stroke-dasharray:none;stroke-opacity:1"/></g></svg>