<svg height="16" viewBox="0 0 12 12" width="16" xmlns="http://www.w3.org/2000/svg" xmlns:xlink="http://www.w3.org/1999/xlink"><clipPath id="a"><path d="m0 0h80.398438v80.398438h-80.398438zm0 0"/></clipPath><g fill="none" stroke="#000" stroke-linecap="round" stroke-linejoin="round" stroke-width="40.201005" transform="matrix(.14925 0 0 .14925 -.000108 .000448)"><path d="m66.992188 402.00781h670.000002" transform="matrix(.1 0 0 -.1 0 80.4)"/><g clip-path="url(#a)"><path d="m192.61719 111.89063c103.67187 59.84374 167.5 170.42968 167.5 290.11718s-63.82813 230.27344-167.5 290.11719" transform="matrix(.1 0 0 -.1 0 80.4)"/><path d="m611.36719 692.125c-103.63282-59.84375-167.5-170.42969-167.5-290.11719s63.86718-230.27344 167.5-290.11718" transform="matrix(.1 0 0 -.1 0 80.4)"/></g></g></svg>