<svg xmlns="http://www.w3.org/2000/svg" xmlns:svg="http://www.w3.org/2000/svg" id="svg13" width="16" height="16" version="1.1" viewBox="0 0 12 12"><metadata id="metadata19"/><defs id="defs17"><clipPath id="clip1"><path id="path2-3-3" d="M 0,0 H 80.398438 V 80.398438 H 0 Z m 0,0"/></clipPath><clipPath id="clip1-1"><path id="path2" d="M 0,0 H 80.398438 V 80.398438 H 0 Z m 0,0"/></clipPath></defs><g id="g885"><g style="stroke:#000;stroke-width:4.0201005;stroke-miterlimit:4;stroke-dasharray:none;stroke-opacity:1;stroke-linejoin:round;stroke-linecap:round" id="surface1" transform="matrix(0.14925,0,0,0.14925,-1.08e-4,4.48e-4)"><path id="path7" d="M 66.992188,402.00781 H 736.99219" transform="matrix(0.1,0,0,-0.1,0,80.4)" style="fill:none;stroke:#000;stroke-width:40.20100503;stroke-linecap:round;stroke-linejoin:round;stroke-miterlimit:4;stroke-dasharray:none;stroke-opacity:1"/><g style="clip-rule:nonzero;stroke:#000;stroke-width:4.0201005;stroke-miterlimit:4;stroke-dasharray:none;stroke-opacity:1;stroke-linejoin:round;stroke-linecap:round" id="g13" clip-path="url(#clip1-1)"><path id="path9-2" d="m 192.61719,111.89063 c 103.67187,59.84374 167.5,170.42968 167.5,290.11718 0,119.6875 -63.82813,230.27344 -167.5,290.11719" transform="matrix(0.1,0,0,-0.1,0,80.4)" style="fill:none;stroke:#000;stroke-width:40.20100503;stroke-linecap:round;stroke-linejoin:round;stroke-miterlimit:4;stroke-dasharray:none;stroke-opacity:1"/><path id="path11" d="m 611.36719,692.125 c -103.63282,-59.84375 -167.5,-170.42969 -167.5,-290.11719 0,-119.6875 63.86718,-230.27344 167.5,-290.11718" transform="matrix(0.1,0,0,-0.1,0,80.4)" style="fill:none;stroke:#000;stroke-width:40.20100503;stroke-linecap:round;stroke-linejoin:round;stroke-miterlimit:4;stroke-dasharray:none;stroke-opacity:1"/></g></g></g></svg>