<svg height="16" viewBox="0 0 12 12" width="16" xmlns="http://www.w3.org/2000/svg" xmlns:xlink="http://www.w3.org/1999/xlink"><clipPath id="a"><path d="m0 0h80.398438v80.398438h-80.398438zm0 0"/></clipPath><g style="clip-path:url(#a);fill:none;stroke:#000;stroke-width:40.201005;stroke-linecap:round;stroke-linejoin:round" transform="matrix(.14925 0 0 .14925 .000267 .000267)"><path d="m91.523438 510.28906c-15.703126 15.70313-24.53125 36.99219-24.53125 59.21875 0 22.1875 8.828124 43.51563 24.53125 59.21875 15.703122 15.70313 37.031252 24.53125 59.218752 24.53125 46.25 0 83.75-37.5 83.75-83.75v-335" transform="matrix(.1 0 0 -.1 0 80.4)"/><path d="m234.49219 569.50781c0 46.25 37.5 83.75 83.75 83.75s83.75-37.5 83.75-83.75v-335" transform="matrix(.1 0 0 -.1 0 80.4)"/><path d="m401.99219 569.50781c0 46.25 37.5 83.75 83.75 83.75s83.75-37.5 83.75-83.75v-335c0-46.25 37.5-83.75 83.75-83.75" transform="matrix(.1 0 0 -.1 0 80.4)"/><path d="m569.49219 234.50781v251.25c0 46.25 37.5 83.75 83.75 83.75s83.75-37.5 83.75-83.75c0-138.75-112.5-251.25-251.25-251.25" transform="matrix(.1 0 0 -.1 0 80.4)"/></g></svg>