<svg xmlns="http://www.w3.org/2000/svg" xmlns:svg="http://www.w3.org/2000/svg" id="svg9" width="16" height="16" version="1.1" viewBox="0 0 12 12"><metadata id="metadata15"/><defs id="defs13"><clipPath id="clip1"><path id="path2-3" d="M 0,0 H 80.398438 V 80.398438 H 0 Z m 0,0"/></clipPath></defs><g id="g832"><g style="clip-rule:nonzero;stroke:#000;stroke-width:4.0201005;stroke-miterlimit:4;stroke-dasharray:none;stroke-opacity:1;stroke-linecap:round;stroke-linejoin:round" id="g15" clip-path="url(#clip1)" transform="matrix(0.14925,0,0,0.14925,2.6657917e-4,2.6656425e-4)"><path style="fill:none;stroke:#000;stroke-width:40.20100503;stroke-linecap:round;stroke-linejoin:round;stroke-miterlimit:4;stroke-dasharray:none;stroke-opacity:1" id="path7" d="m 91.523438,510.28906 c -15.703126,15.70313 -24.53125,36.99219 -24.53125,59.21875 0,22.1875 8.828124,43.51563 24.53125,59.21875 15.703122,15.70313 37.031252,24.53125 59.218752,24.53125 46.25,0 83.75,-37.5 83.75,-83.75 v -335" transform="matrix(0.1,0,0,-0.1,0,80.4)"/><path style="fill:none;stroke:#000;stroke-width:40.20100503;stroke-linecap:round;stroke-linejoin:round;stroke-miterlimit:4;stroke-dasharray:none;stroke-opacity:1" id="path9" d="m 234.49219,569.50781 c 0,46.25 37.5,83.75 83.75,83.75 46.25,0 83.75,-37.5 83.75,-83.75 v -335" transform="matrix(0.1,0,0,-0.1,0,80.4)"/><path style="fill:none;stroke:#000;stroke-width:40.20100503;stroke-linecap:round;stroke-linejoin:round;stroke-miterlimit:4;stroke-dasharray:none;stroke-opacity:1" id="path11" d="m 401.99219,569.50781 c 0,46.25 37.5,83.75 83.75,83.75 46.25,0 83.75,-37.5 83.75,-83.75 v -335 c 0,-46.25 37.5,-83.75 83.75,-83.75" transform="matrix(0.1,0,0,-0.1,0,80.4)"/><path style="fill:none;stroke:#000;stroke-width:40.20100503;stroke-linecap:round;stroke-linejoin:round;stroke-miterlimit:4;stroke-dasharray:none;stroke-opacity:1" id="path13" d="m 569.49219,234.50781 v 251.25 c 0,46.25 37.5,83.75 83.75,83.75 46.25,0 83.75,-37.5 83.75,-83.75 0,-138.75 -112.5,-251.25 -251.25,-251.25" transform="matrix(0.1,0,0,-0.1,0,80.4)"/></g></g></svg>