<?xml version="1.0" encoding="utf-8"?>
<!-- Generator: Adobe Illustrator 26.3.1, SVG Export Plug-In . SVG Version: 6.00 Build 0)  -->
<svg version="1.1" id="Layer_1" xmlns="http://www.w3.org/2000/svg" xmlns:xlink="http://www.w3.org/1999/xlink" x="0px" y="0px"
	 viewBox="0 0 1200 400" style="enable-background:new 0 0 1200 400;" xml:space="preserve">
<style type="text/css">
	.st0{fill:#F0FDFA;}
	.st1{fill:#06B6D4;}
	.st2{enable-background:new    ;}
	.st3{fill:#0E7490;}
</style>
<rect class="st0" width="1200" height="400"/>
<g>
	<g id="svg_5">
		<path id="svg_4" class="st1" d="M313.6,86.5C251,86.5,200,137.5,200,200s51,113.5,113.6,113.5s113.5-51,113.5-113.5
			S376.1,86.5,313.6,86.5z M351.4,138.9c21.8,0,39.3,18,39.3,39.8s-18,39.3-39.8,39.3s-39.3-18-39.3-39.3
			C311.6,156.8,331.4,159.8,351.4,138.9L351.4,138.9z M267,168.5c18,0,32.5-0.5,32.5,17.5S285,218.5,267,218.5S234.5,204,234.5,186
			S249,168.5,267,168.5L267,168.5z M225.3,237.8c13.6-7.3,30.6-10.7,41.2-10.7c8.3,0,18.9,1.5,29.1,5.3c-6.8,3.9-13.1,8.7-18.4,14.5
			c-7.3,8.3-11.2,18-11.2,27.6v8.3C248,272.7,234,256.7,225.3,237.8L225.3,237.8z M313.6,296c-11.2,0-21.8-2-32.5-5.8v-14.5
			c0-28.6,46.6-43.1,70.3-43.1c12.6,0,32,4.3,47.1,12.6C381.4,276.1,348.9,296,313.6,296L313.6,296z"/>
	</g>
	<g class="st2">
		<path class="st3" d="M470.9,152.5h11.2v73.7h41.7v10.2h-53.3v-83.8L470.9,152.5L470.9,152.5z"/>
		<path class="st3" d="M567,199c2.5-0.5,3.9-1.5,4.8-2.9c0.5-1,0.5-2.5,0.5-3.9c0-3.4-1.5-5.8-3.9-7.8c-2.5-2-5.8-2.5-10.7-2.5
			c-5.3,0-9.2,1.5-11.2,4.3c-1.5,1.5-2,3.9-2.5,7.3h-9.7c0-7.8,2.5-12.6,7.3-15.5s10.2-4.3,16.5-4.3c7.3,0,13.1,1.5,17.5,3.9
			c4.3,2.9,6.8,6.8,6.8,12.6v34.9c0,1,0,2,0.5,2.5s1.5,1,2.9,1c0.5,0,1,0,1.5,0s1,0,2-0.5v7.8c-1.5,0.5-2.9,1-3.9,1s-2,0-3.4,0
			c-3.4,0-6.3-1.5-7.8-3.9c-1-1.5-1.5-3.4-2-5.8c-2,2.9-4.8,5.3-9.2,7.3c-4.3,2-8.3,2.9-13.1,2.9c-5.8,0-10.2-2-14-5.3
			s-4.3-6.8-4.3-12.1c0-5.8,2-10.2,5.3-13.1c3.4-2.9,8.3-4.8,14-5.8L567,199z M545.7,226.6c2,2,4.8,2.5,7.8,2.5
			c3.4,0,7.3-1,10.7-2.5c5.8-2.9,8.7-7.3,8.7-13.6v-8.3c-1.5,1-2.9,1.5-4.8,2c-2.5,1-4.3,1.5-6.3,1.5l-6.3,1
			c-3.9,0.5-6.3,1.5-8.3,2.5c-3.4,2-4.8,4.8-4.8,8.7C542.2,222.8,543.2,225.2,545.7,226.6z"/>
		<path class="st3" d="M594.6,228.1l36.3-43.6h-33.5v-9.2h47.1v8.3l-35.9,43.1h36.8v9.2h-50.9L594.6,228.1L594.6,228.1z"/>
		<path class="st3" d="M695.5,175.3h11.2c-1.5,3.9-4.8,12.6-9.7,26.7c-3.9,10.7-6.8,18.9-9.2,25.7c-5.8,15.5-10.2,25.2-12.6,28.6
			c-2.5,3.4-6.8,5.3-12.6,5.3c-1.5,0-2.5,0-3.4,0c-1,0-2-0.5-2.9-0.5v-9.2c2,0.5,2.9,1,3.9,1s1.5,0,2,0c2,0,3.4-0.5,4.3-1
			c1-0.5,1.5-1.5,2.5-2.5c0-0.5,1-2,2-4.8c1-2.9,2-4.8,2.5-6.3L651,175.7h11.6l16.5,49.5L695.5,175.3z"/>
		<path class="st3" d="M729,152.5v51.4c0,5.8,1,11.2,3.4,15c3.4,5.8,9.2,9.2,17,9.2c9.7,0,16-3.4,19.9-9.7c2-3.4,2.9-8.3,2.9-14.5
			v-51.4h11.6v47c0,10.2-1.5,18-4.3,23.8c-5.3,10.2-14.5,15-29.1,15s-23.8-4.8-28.6-15c-2.9-5.3-4.3-13.6-4.3-23.8v-47H729z"/>
		<path class="st3" d="M799.2,175.3h9.7v8.7c2.9-3.4,5.8-6.3,9.2-7.8s6.8-2.5,10.7-2.5c8.7,0,14.5,2.9,17.5,9.2
			c1.5,3.4,2.5,8.3,2.5,14v39.3h-10.2v-38.3c0-3.9-0.5-6.8-1.5-9.2c-2-3.9-5.3-5.8-9.7-5.8c-2.5,0-4.3,0.5-5.8,1
			c-2.9,1-5.3,2.5-7.3,4.8c-2,2-2.9,3.9-3.4,6.3c-0.5,2.5-1,5.3-1,9.2v32h-10.2v-61.1h-0.5V175.3z"/>
		<path class="st3" d="M904.5,178.6c4.3,3.4,6.8,9.2,7.8,17.5h-10.2c-0.5-3.9-2-6.8-4.3-9.2c-2.5-2.5-5.8-3.9-10.2-3.9
			c-6.3,0-11.2,3.4-14,9.7c-2,3.9-2.9,9.2-2.9,15c0,6.3,1.5,11.2,3.9,15.5s6.8,6.3,12.1,6.3c4.3,0,7.8-1.5,10.2-3.9
			c2.5-2.5,4.3-6.3,5.3-10.7h10.2c-1,8.3-3.9,14-8.7,18c-4.8,3.9-10.2,5.8-17.5,5.8c-7.8,0-14-2.9-18.9-8.7s-7.3-13.1-7.3-21.8
			c0-10.7,2.5-18.9,7.8-24.8s11.6-8.7,19.9-8.7C894.8,173.3,900.1,175.3,904.5,178.6z"/>
		<path class="st3" d="M922.9,152.5h10.2v83.4h-10.2V152.5z"/>
		<path class="st3" d="M985.9,176.7c3.9,2,7.3,4.8,9.2,7.8c1.9,2.9,3.4,6.8,3.9,10.7c0.5,2.9,1,7.3,1,13.6h-44.1
			c0,6.3,1.5,11.2,4.3,15c2.9,3.9,6.8,5.8,12.6,5.8c5.3,0,9.7-2,12.6-5.3c2-2,2.9-4.3,3.9-7.3h10.2c-0.5,2.5-1,4.8-2.5,7.3
			s-3.4,4.8-4.8,6.8c-2.9,2.9-6.8,4.8-11.6,6.3c-2.5,0.5-5.3,1-8.3,1c-7.8,0-14-2.9-18.9-8.3c-4.8-5.3-7.8-13.1-7.8-23.3
			c0-9.7,2.5-18,7.8-23.8s12.1-9.2,20.8-9.2C977.7,173.8,982.1,174.8,985.9,176.7z M989.4,200.9c-0.5-4.3-1.5-7.8-2.9-10.7
			c-2.9-4.8-7.3-7.3-14-7.3c-4.8,0-8.7,1.5-11.6,4.8c-3.4,3.4-4.8,7.8-4.8,13.1L989.4,200.9L989.4,200.9z"/>
	</g>
</g>
</svg>
