<svg enable-background="new 0 0 1024 1024" viewBox="0 0 1024 1024" xmlns="http://www.w3.org/2000/svg"><path d="m512.2 54.8c-252.2 0-457.6 205.4-457.6 457.2s205.4 457.2 457.6 457.2 457.2-205.4 457.2-457.2-205.4-457.2-457.2-457.2zm152.3 211.1c87.8 0 158.3 72.5 158.3 160.3s-72.5 158.3-160.3 158.3-158.4-72.5-158.4-158.3c0-88.2 79.8-76.1 160.4-160.3zm-340 119.2c72.5 0 130.9-2 130.9 70.5s-58.4 130.9-130.9 130.9-130.9-58.4-130.9-130.9 58.4-70.5 130.9-70.5zm-168 279.2c54.8-29.4 123.3-43.1 166-43.1 33.4 0 76.1 6 117.2 21.4-27.4 15.7-52.8 35-74.1 58.4-29.4 33.4-45.1 72.5-45.1 111.2v33.4c-72.6-40.7-129-105.2-164-181.3zm355.7 234.4c-45.1 0-87.8-8.1-130.9-23.4v-58.3c0-115.2 187.7-173.6 283.2-173.6 50.8 0 128.9 17.3 189.7 50.8-68.9 124.4-199.8 204.5-342 204.5z" fill="#006368"/></svg>