<svg xmlns="http://www.w3.org/2000/svg" xmlns:xlink="http://www.w3.org/1999/xlink" id="Layer_1" x="0" y="0" version="1.1" viewBox="0 0 1200 359.5" xml:space="preserve" style="enable-background:new 0 0 1200 359.5"><style type="text/css">.st0{fill:#64748b}.st1{enable-background:new}.st2{fill:#1e293b}</style><g><g id="svg_5"><path id="svg_4" d="M198.1,18C108.9,18,36.3,90.6,36.3,179.7s72.6,161.8,161.8,161.8s161.8-72.6,161.8-161.8 S287.2,18,198.1,18z M252,92.6c31.1,0,56,25.6,56,56.7s-25.6,56-56.7,56s-56-25.6-56-56C195.3,118.2,223.6,122.4,252,92.6 L252,92.6z M131.7,134.8c25.6,0,46.3-0.7,46.3,24.9S157.3,206,131.7,206s-46.3-20.7-46.3-46.3S106.1,134.8,131.7,134.8 L131.7,134.8z M72.3,233.7c19.4-10.4,43.6-15.2,58.8-15.2c11.8,0,27,2.1,41.5,7.6c-9.7,5.5-18.7,12.4-26.3,20.7 c-10.4,11.8-15.9,25.6-15.9,39.4v11.8C104.7,283.4,84.7,260.6,72.3,233.7L72.3,233.7z M198.1,316.6c-15.9,0-31.1-2.8-46.3-8.3 v-20.7c0-40.8,66.4-61.5,100.2-61.5c18,0,45.6,6.2,67.1,18C294.8,288.3,248.5,316.6,198.1,316.6L198.1,316.6z" class="st0"/></g><g class="st1"><path d="M408.2,177h15.9V282h59.4v14.5h-76V177H408.2z" class="st2"/><path d="M545.1,243.3c3.5-0.7,5.5-2.1,6.9-4.1c0.7-1.4,0.7-3.5,0.7-5.5c0-4.8-2.1-8.3-5.5-11.1 c-3.5-2.8-8.3-3.5-15.2-3.5c-7.6,0-13.1,2.1-15.9,6.2c-2.1,2.1-2.8,5.5-3.5,10.4h-13.8c0-11.1,3.5-18,10.4-22.1 c6.9-4.1,14.5-6.2,23.5-6.2c10.4,0,18.7,2.1,24.9,5.5c6.2,4.1,9.7,9.7,9.7,18v49.8c0,1.4,0,2.8,0.7,3.5c0.7,0.7,2.1,1.4,4.1,1.4 c0.7,0,1.4,0,2.1,0c0.7,0,1.4,0,2.8-0.7v11.1c-2.1,0.7-4.1,1.4-5.5,1.4c-1.4,0-2.8,0-4.8,0c-4.8,0-9-2.1-11.1-5.5 c-1.4-2.1-2.1-4.8-2.8-8.3c-2.8,4.1-6.9,7.6-13.1,10.4c-6.2,2.8-11.8,4.1-18.7,4.1c-8.3,0-14.5-2.8-20-7.6s-6.2-9.7-6.2-17.3 c0-8.3,2.8-14.5,7.6-18.7c4.8-4.1,11.8-6.9,20-8.3L545.1,243.3z M514.7,282.7c2.8,2.8,6.9,3.5,11.1,3.5c4.8,0,10.4-1.4,15.2-3.5 c8.3-4.1,12.4-10.4,12.4-19.4v-11.8c-2.1,1.4-4.1,2.1-6.9,2.8c-3.5,1.4-6.2,2.1-9,2.1l-9,1.4c-5.5,0.7-9,2.1-11.8,3.5 c-4.8,2.8-6.9,6.9-6.9,12.4C509.8,277.2,511.2,280.7,514.7,282.7z" class="st2"/><path d="M584.5,284.8l51.8-62.2h-47.7v-13.1h67.1v11.8l-51.2,61.5h52.5v13.1h-72.6V284.8z" class="st2"/><path d="M728.3,209.5h15.9c-2.1,5.5-6.9,18-13.8,38c-5.5,15.2-9.7,27-13.1,36.6c-8.3,22.1-14.5,35.9-18,40.8 c-3.5,4.8-9.7,7.6-18,7.6c-2.1,0-3.5,0-4.8,0c-1.4,0-2.8-0.7-4.1-0.7v-13.1c2.8,0.7,4.1,1.4,5.5,1.4c1.4,0,2.1,0,2.8,0 c2.8,0,4.8-0.7,6.2-1.4c1.4-0.7,2.1-2.1,3.5-3.5c0-0.7,1.4-2.8,2.8-6.9c1.4-4.1,2.8-6.9,3.5-9l-31.8-89.2h16.6l23.5,70.5 L728.3,209.5z" class="st2"/><path d="M776,177v73.3c0,8.3,1.4,15.9,4.8,21.4c4.8,8.3,13.1,13.1,24.2,13.1c13.8,0,22.8-4.8,28.3-13.8 c2.8-4.8,4.1-11.8,4.1-20.7V177h16.6V244c0,14.5-2.1,25.6-6.2,33.9c-7.6,14.5-20.7,21.4-41.5,21.4s-33.9-6.9-40.8-21.4 c-4.1-7.6-6.2-19.4-6.2-33.9V177H776z" class="st2"/><path d="M876.2,209.5H890v12.4c4.1-4.8,8.3-9,13.1-11.1c4.8-2.1,9.7-3.5,15.2-3.5c12.4,0,20.7,4.1,24.9,13.1 c2.1,4.8,3.5,11.8,3.5,20v56h-14.5v-54.6c0-5.5-0.7-9.7-2.1-13.1c-2.8-5.5-7.6-8.3-13.8-8.3c-3.5,0-6.2,0.7-8.3,1.4 c-4.1,1.4-7.6,3.5-10.4,6.9c-2.8,2.8-4.1,5.5-4.8,9c-0.7,3.5-1.4,7.6-1.4,13.1v45.6h-14.5v-87.1H876.2z" class="st2"/><path d="M1026.2,214.3c6.2,4.8,9.7,13.1,11.1,24.9h-14.5c-0.7-5.5-2.8-9.7-6.2-13.1c-3.5-3.5-8.3-5.5-14.5-5.5 c-9,0-15.9,4.8-20,13.8c-2.8,5.5-4.1,13.1-4.1,21.4c0,9,2.1,15.9,5.5,22.1s9.7,9,17.3,9c6.2,0,11.1-2.1,14.5-5.5 c3.5-3.5,6.2-9,7.6-15.2h14.5c-1.4,11.8-5.5,20-12.4,25.6c-6.9,5.5-14.5,8.3-24.9,8.3c-11.1,0-20-4.1-27-12.4 s-10.4-18.7-10.4-31.1c0-15.2,3.5-27,11.1-35.3c7.6-8.3,16.6-12.4,28.3-12.4C1012.4,206.7,1020,209.5,1026.2,214.3z" class="st2"/><path d="M1052.5,177h14.5v118.9h-14.5V177z" class="st2"/><path d="M1142.3,211.5c5.5,2.8,10.4,6.9,13.1,11.1s4.8,9.7,5.5,15.2c0.7,4.1,1.4,10.4,1.4,19.4h-62.9 c0,9,2.1,15.9,6.2,21.4s9.7,8.3,18,8.3c7.6,0,13.8-2.8,18-7.6c2.8-2.8,4.1-6.2,5.5-10.4h14.5c-0.7,3.5-1.4,6.9-3.5,10.4 c-2.1,3.5-4.8,6.9-6.9,9.7c-4.1,4.1-9.7,6.9-16.6,9c-3.5,0.7-7.6,1.4-11.8,1.4c-11.1,0-20-4.1-27-11.8 c-6.9-7.6-11.1-18.7-11.1-33.2c0-13.8,3.5-25.6,11.1-33.9c7.6-8.3,17.3-13.1,29.7-13.1C1130.6,207.4,1136.8,208.8,1142.3,211.5z M1147.2,246.1c-0.7-6.2-2.1-11.1-4.1-15.2c-4.1-6.9-10.4-10.4-20-10.4c-6.9,0-12.4,2.1-16.6,6.9c-4.8,4.8-6.9,11.1-6.9,18.7 H1147.2z" class="st2"/></g></g></svg>