<svg enable-background="new 0 0 60 60" viewBox="0 0 60 60" xmlns="http://www.w3.org/2000/svg"><path d="m29.9 2.2c-15.2 0-27.5 12.3-27.5 27.5s12.3 27.5 27.5 27.5 27.5-12.3 27.5-27.5-12.3-27.5-27.5-27.5zm9.2 12.7c5.3 0 9.5 4.3 9.5 9.6s-4.4 9.5-9.7 9.5-9.5-4.3-9.5-9.5c0-5.3 4.8-4.6 9.7-9.6zm-20.5 7.1c4.3 0 7.9-.1 7.9 4.2s-3.5 7.9-7.9 7.9-7.9-3.5-7.9-7.9 3.6-4.2 7.9-4.2zm-10.1 16.8c3.3-1.8 7.4-2.6 10-2.6 2 0 4.6.4 7.1 1.3-1.6.9-3.2 2.1-4.5 3.5-1.8 2-2.7 4.3-2.7 6.7v2c-4.4-2.4-7.8-6.3-9.9-10.9zm21.4 14.1c-2.7 0-5.3-.5-7.9-1.4v-3.5c0-6.9 11.3-10.5 17-10.5 3.1 0 7.8 1.1 11.4 3.1-4.1 7.5-11.9 12.3-20.5 12.3z" fill="#fafbfc"/></svg>