<?xml version="1.0" encoding="utf-8"?>
<!-- Generator: Adobe Illustrator 25.0.0, SVG Export Plug-In . SVG Version: 6.00 Build 0)  -->
<svg version="1.1" id="Layer_1" xmlns="http://www.w3.org/2000/svg" xmlns:xlink="http://www.w3.org/1999/xlink" x="0px" y="0px"
	 viewBox="0 0 179.6 53.8" style="enable-background:new 0 0 179.6 53.8;" xml:space="preserve">
<style type="text/css">
	.st0{font-family:'Helvetica';}
	.st1{font-size:24px;}
</style>
<g>
	<g id="svg_5">
		<path id="svg_4" d="M31.1,3.5C18.2,3.5,7.7,14,7.7,26.9s10.5,23.4,23.4,23.4s23.4-10.5,23.4-23.4S44,3.5,31.1,3.5z M38.9,14.3
			c4.5,0,8.1,3.7,8.1,8.2c0,4.5-3.7,8.1-8.2,8.1c-4.5,0-8.1-3.7-8.1-8.1C30.7,18,34.8,18.6,38.9,14.3L38.9,14.3z M21.5,20.4
			c3.7,0,6.7-0.1,6.7,3.6c0,3.7-3,6.7-6.7,6.7c-3.7,0-6.7-3-6.7-6.7C14.8,20.3,17.8,20.4,21.5,20.4C21.5,20.4,21.5,20.4,21.5,20.4z
			 M12.9,34.7c2.8-1.5,6.3-2.2,8.5-2.2c1.7,0,3.9,0.3,6,1.1c-1.4,0.8-2.7,1.8-3.8,3c-1.5,1.7-2.3,3.7-2.3,5.7v1.7
			C17.6,41.9,14.7,38.6,12.9,34.7L12.9,34.7z M31.1,46.7c-2.3,0-4.5-0.4-6.7-1.2v-3c0-5.9,9.6-8.9,14.5-8.9c2.6,0,6.6,0.9,9.7,2.6
			C45.1,42.6,38.4,46.7,31.1,46.7L31.1,46.7z"/>
	</g>
	<text id="svg_6" transform="matrix(1 0 0 1 59.676 43.7366)" class="st0 st1">LazyUncle</text>
</g>
</svg>
