<svg enable-background="new 0 0 1200 359.5" viewBox="0 0 1200 359.5" xmlns="http://www.w3.org/2000/svg"><g fill="#006368"><path d="m198.1 24.7c-89.2 0-161.8 72.6-161.8 161.7s72.6 161.8 161.8 161.8 161.8-72.6 161.8-161.8-72.7-161.7-161.8-161.7zm53.9 74.6c31.1 0 56 25.6 56 56.7s-25.6 56-56.7 56-56-25.6-56-56c0-31.1 28.3-26.9 56.7-56.7zm-120.3 42.2c25.6 0 46.3-.7 46.3 24.9s-20.7 46.3-46.3 46.3-46.3-20.7-46.3-46.3 20.7-24.9 46.3-24.9zm-59.4 98.9c19.4-10.4 43.6-15.2 58.8-15.2 11.8 0 27 2.1 41.5 7.6-9.7 5.5-18.7 12.4-26.3 20.7-10.4 11.8-15.9 25.6-15.9 39.4v11.8c-25.7-14.6-45.7-37.4-58.1-64.3zm125.8 82.9c-15.9 0-31.1-2.8-46.3-8.3v-20.7c0-40.8 66.4-61.5 100.2-61.5 18 0 45.6 6.2 67.1 18-24.3 44.2-70.6 72.5-121 72.5z"/><g enable-background="new"><path d="m408.2 118.7h15.9v105h59.4v14.5h-76v-119.5z"/><path d="m545.1 185c3.5-.7 5.5-2.1 6.9-4.1.7-1.4.7-3.5.7-5.5 0-4.8-2.1-8.3-5.5-11.1-3.5-2.8-8.3-3.5-15.2-3.5-7.6 0-13.1 2.1-15.9 6.2-2.1 2.1-2.8 5.5-3.5 10.4h-13.8c0-11.1 3.5-18 10.4-22.1s14.5-6.2 23.5-6.2c10.4 0 18.7 2.1 24.9 5.5 6.2 4.1 9.7 9.7 9.7 18v49.8c0 1.4 0 2.8.7 3.5s2.1 1.4 4.1 1.4h2.1c.7 0 1.4 0 2.8-.7v11.1c-2.1.7-4.1 1.4-5.5 1.4s-2.8 0-4.8 0c-4.8 0-9-2.1-11.1-5.5-1.4-2.1-2.1-4.8-2.8-8.3-2.8 4.1-6.9 7.6-13.1 10.4s-11.8 4.1-18.7 4.1c-8.3 0-14.5-2.8-20-7.6s-6.2-9.7-6.2-17.3c0-8.3 2.8-14.5 7.6-18.7 4.8-4.1 11.8-6.9 20-8.3zm-30.4 39.4c2.8 2.8 6.9 3.5 11.1 3.5 4.8 0 10.4-1.4 15.2-3.5 8.3-4.1 12.4-10.4 12.4-19.4v-11.8c-2.1 1.4-4.1 2.1-6.9 2.8-3.5 1.4-6.2 2.1-9 2.1l-9 1.4c-5.5.7-9 2.1-11.8 3.5-4.8 2.8-6.9 6.9-6.9 12.4-0 3.5 1.4 7 4.9 9z"/><path d="m584.5 226.5 51.8-62.2h-47.7v-13.1h67.1v11.8l-51.2 61.5h52.5v13.1h-72.6z"/><path d="m728.3 151.2h15.9c-2.1 5.5-6.9 18-13.8 38-5.5 15.2-9.7 27-13.1 36.6-8.3 22.1-14.5 35.9-18 40.8-3.5 4.8-9.7 7.6-18 7.6-2.1 0-3.5 0-4.8 0-1.4 0-2.8-.7-4.1-.7v-13.1c2.8.7 4.1 1.4 5.5 1.4s2.1 0 2.8 0c2.8 0 4.8-.7 6.2-1.4s2.1-2.1 3.5-3.5c0-.7 1.4-2.8 2.8-6.9s2.8-6.9 3.5-9l-31.8-89.2h16.6l23.5 70.5z"/><path d="m776 118.7v73.3c0 8.3 1.4 15.9 4.8 21.4 4.8 8.3 13.1 13.1 24.2 13.1 13.8 0 22.8-4.8 28.3-13.8 2.8-4.8 4.1-11.8 4.1-20.7v-73.3h16.6v67c0 14.5-2.1 25.6-6.2 33.9-7.6 14.5-20.7 21.4-41.5 21.4s-33.9-6.9-40.8-21.4c-4.1-7.6-6.2-19.4-6.2-33.9v-67z"/><path d="m876.2 151.2h13.8v12.4c4.1-4.8 8.3-9 13.1-11.1s9.7-3.5 15.2-3.5c12.4 0 20.7 4.1 24.9 13.1 2.1 4.8 3.5 11.8 3.5 20v56h-14.5v-54.6c0-5.5-.7-9.7-2.1-13.1-2.8-5.5-7.6-8.3-13.8-8.3-3.5 0-6.2.7-8.3 1.4-4.1 1.4-7.6 3.5-10.4 6.9-2.8 2.8-4.1 5.5-4.8 9s-1.4 7.6-1.4 13.1v45.6h-14.5v-87.1h-.7z"/><path d="m1026.2 156c6.2 4.8 9.7 13.1 11.1 24.9h-14.5c-.7-5.5-2.8-9.7-6.2-13.1-3.5-3.5-8.3-5.5-14.5-5.5-9 0-15.9 4.8-20 13.8-2.8 5.5-4.1 13.1-4.1 21.4 0 9 2.1 15.9 5.5 22.1s9.7 9 17.3 9c6.2 0 11.1-2.1 14.5-5.5 3.5-3.5 6.2-9 7.6-15.2h14.5c-1.4 11.8-5.5 20-12.4 25.6-6.9 5.5-14.5 8.3-24.9 8.3-11.1 0-20-4.1-27-12.4s-10.4-18.7-10.4-31.1c0-15.2 3.5-27 11.1-35.3s16.6-12.4 28.3-12.4c10.3-2.2 17.9.6 24.1 5.4z"/><path d="m1052.5 118.7h14.5v118.9h-14.5z"/><path d="m1142.3 153.2c5.5 2.8 10.4 6.9 13.1 11.1s4.8 9.7 5.5 15.2c.7 4.1 1.4 10.4 1.4 19.4h-62.9c0 9 2.1 15.9 6.2 21.4s9.7 8.3 18 8.3c7.6 0 13.8-2.8 18-7.6 2.8-2.8 4.1-6.2 5.5-10.4h14.5c-.7 3.5-1.4 6.9-3.5 10.4s-4.8 6.9-6.9 9.7c-4.1 4.1-9.7 6.9-16.6 9-3.5.7-7.6 1.4-11.8 1.4-11.1 0-20-4.1-27-11.8-6.9-7.6-11.1-18.7-11.1-33.2 0-13.8 3.5-25.6 11.1-33.9s17.3-13.1 29.7-13.1c5.1 0 11.3 1.4 16.8 4.1zm4.9 34.6c-.7-6.2-2.1-11.1-4.1-15.2-4.1-6.9-10.4-10.4-20-10.4-6.9 0-12.4 2.1-16.6 6.9-4.8 4.8-6.9 11.1-6.9 18.7z"/></g></g></svg>