<?xml version="1.0" encoding="utf-8"?>
<!-- Generator: Adobe Illustrator 26.0.3, SVG Export Plug-In . SVG Version: 6.00 Build 0)  -->
<svg version="1.1" id="Layer_1" xmlns="http://www.w3.org/2000/svg" xmlns:xlink="http://www.w3.org/1999/xlink" x="0px" y="0px"
	 viewBox="0 0 810 240" style="enable-background:new 0 0 810 240;" xml:space="preserve">
<style type="text/css">
	.st0{fill:#F0FDFA;}
	.st1{enable-background:new    ;}
</style>
<g>
	<g id="svg_5">
		<path id="svg_4" class="st0" d="M120.1,6C57.5,6,6.5,57,6.5,119.5S57.5,233,120.1,233s113.5-51,113.5-113.5S182.6,6,120.1,6z
			 M157.9,58.4c21.8,0,39.3,18,39.3,39.8s-18,39.3-39.8,39.3s-39.3-18-39.3-39.3C118.1,76.3,137.9,79.3,157.9,58.4L157.9,58.4z
			 M73.5,88c18,0,32.5-0.5,32.5,17.5S91.5,138,73.5,138S41,123.5,41,105.5S55.5,88,73.5,88L73.5,88z M31.8,157.3
			c13.6-7.3,30.6-10.7,41.2-10.7c8.3,0,18.9,1.5,29.1,5.3c-6.8,3.9-13.1,8.7-18.4,14.5c-7.3,8.3-11.2,18-11.2,27.6v8.3
			C54.5,192.2,40.5,176.2,31.8,157.3L31.8,157.3z M120.1,215.5c-11.2,0-21.8-2-32.5-5.8v-14.5c0-28.6,46.6-43.1,70.3-43.1
			c12.6,0,32,4.3,47.1,12.6C187.9,195.6,155.4,215.5,120.1,215.5L120.1,215.5z"/>
	</g>
	<g class="st1">
		<path class="st0" d="M277.4,72h11.2v73.7h41.7v10.2H277V72.1L277.4,72L277.4,72z"/>
		<path class="st0" d="M373.5,118.5c2.5-0.5,3.9-1.5,4.8-2.9c0.5-1,0.5-2.5,0.5-3.9c0-3.4-1.5-5.8-3.9-7.8c-2.5-2-5.8-2.5-10.7-2.5
			c-5.3,0-9.2,1.5-11.2,4.3c-1.5,1.5-2,3.9-2.5,7.3h-9.7c0-7.8,2.5-12.6,7.3-15.5s10.2-4.3,16.5-4.3c7.3,0,13.1,1.5,17.5,3.9
			c4.3,2.9,6.8,6.8,6.8,12.6v34.9c0,1,0,2,0.5,2.5s1.5,1,2.9,1c0.5,0,1,0,1.5,0s1,0,2-0.5v7.8c-1.5,0.5-2.9,1-3.9,1s-2,0-3.4,0
			c-3.4,0-6.3-1.5-7.8-3.9c-1-1.5-1.5-3.4-2-5.8c-2,2.9-4.8,5.3-9.2,7.3c-4.3,2-8.3,2.9-13.1,2.9c-5.8,0-10.2-2-14-5.3
			s-4.3-6.8-4.3-12.1c0-5.8,2-10.2,5.3-13.1c3.4-2.9,8.3-4.8,14-5.8L373.5,118.5z M352.2,146.1c2,2,4.8,2.5,7.8,2.5
			c3.4,0,7.3-1,10.7-2.5c5.8-2.9,8.7-7.3,8.7-13.6v-8.3c-1.5,1-2.9,1.5-4.8,2c-2.5,1-4.3,1.5-6.3,1.5l-6.3,1
			c-3.9,0.5-6.3,1.5-8.3,2.5c-3.4,2-4.8,4.8-4.8,8.7C348.7,142.3,349.7,144.7,352.2,146.1z"/>
		<path class="st0" d="M401.1,147.6l36.3-43.6h-33.5v-9.2H451v8.3l-35.9,43.1h36.8v9.2H401L401.1,147.6L401.1,147.6z"/>
		<path class="st0" d="M502,94.8h11.2c-1.5,3.9-4.8,12.6-9.7,26.7c-3.9,10.7-6.8,18.9-9.2,25.7c-5.8,15.5-10.2,25.2-12.6,28.6
			c-2.5,3.4-6.8,5.3-12.6,5.3c-1.5,0-2.5,0-3.4,0c-1,0-2-0.5-2.9-0.5v-9.2c2,0.5,2.9,1,3.9,1s1.5,0,2,0c2,0,3.4-0.5,4.3-1
			c1-0.5,1.5-1.5,2.5-2.5c0-0.5,1-2,2-4.8c1-2.9,2-4.8,2.5-6.3l-22.5-62.6h11.6l16.5,49.5L502,94.8z"/>
		<path class="st0" d="M535.5,72v51.4c0,5.8,1,11.2,3.4,15c3.4,5.8,9.2,9.2,17,9.2c9.7,0,16-3.4,19.9-9.7c2-3.4,2.9-8.3,2.9-14.5V72
			h11.6v47c0,10.2-1.5,18-4.3,23.8c-5.3,10.2-14.5,15-29.1,15s-23.8-4.8-28.6-15c-2.9-5.3-4.3-13.6-4.3-23.8V72H535.5z"/>
		<path class="st0" d="M605.7,94.8h9.7v8.7c2.9-3.4,5.8-6.3,9.2-7.8s6.8-2.5,10.7-2.5c8.7,0,14.5,2.9,17.5,9.2
			c1.5,3.4,2.5,8.3,2.5,14v39.3h-10.2v-38.3c0-3.9-0.5-6.8-1.5-9.2c-2-3.9-5.3-5.8-9.7-5.8c-2.5,0-4.3,0.5-5.8,1
			c-2.9,1-5.3,2.5-7.3,4.8c-2,2-2.9,3.9-3.4,6.3c-0.5,2.5-1,5.3-1,9.2v32h-10.2V94.6h-0.5V94.8z"/>
		<path class="st0" d="M711,98.1c4.3,3.4,6.8,9.2,7.8,17.5h-10.2c-0.5-3.9-2-6.8-4.3-9.2c-2.5-2.5-5.8-3.9-10.2-3.9
			c-6.3,0-11.2,3.4-14,9.7c-2,3.9-2.9,9.2-2.9,15c0,6.3,1.5,11.2,3.9,15.5s6.8,6.3,12.1,6.3c4.3,0,7.8-1.5,10.2-3.9
			c2.5-2.5,4.3-6.3,5.3-10.7h10.2c-1,8.3-3.9,14-8.7,18c-4.8,3.9-10.2,5.8-17.5,5.8c-7.8,0-14-2.9-18.9-8.7s-7.3-13.1-7.3-21.8
			c0-10.7,2.5-18.9,7.8-24.8s11.6-8.7,19.9-8.7C701.3,92.8,706.6,94.8,711,98.1z"/>
		<path class="st0" d="M729.4,72h10.2v83.4h-10.2V72z"/>
		<path class="st0" d="M792.4,96.2c3.9,2,7.3,4.8,9.2,7.8c1.9,2.9,3.4,6.8,3.9,10.7c0.5,2.9,1,7.3,1,13.6h-44.1
			c0,6.3,1.5,11.2,4.3,15c2.9,3.9,6.8,5.8,12.6,5.8c5.3,0,9.7-2,12.6-5.3c2-2,2.9-4.3,3.9-7.3H806c-0.5,2.5-1,4.8-2.5,7.3
			s-3.4,4.8-4.8,6.8c-2.9,2.9-6.8,4.8-11.6,6.3c-2.5,0.5-5.3,1-8.3,1c-7.8,0-14-2.9-18.9-8.3c-4.8-5.3-7.8-13.1-7.8-23.3
			c0-9.7,2.5-18,7.8-23.8s12.1-9.2,20.8-9.2C784.2,93.3,788.6,94.3,792.4,96.2z M795.9,120.4c-0.5-4.3-1.5-7.8-2.9-10.7
			c-2.9-4.8-7.3-7.3-14-7.3c-4.8,0-8.7,1.5-11.6,4.8c-3.4,3.4-4.8,7.8-4.8,13.1L795.9,120.4L795.9,120.4z"/>
	</g>
</g>
</svg>
