<?xml version="1.0" encoding="utf-8"?>
<!-- Generator: Adobe Illustrator 26.0.0, SVG Export Plug-In . SVG Version: 6.00 Build 0)  -->
<svg version="1.1" id="Layer_1" xmlns="http://www.w3.org/2000/svg" xmlns:xlink="http://www.w3.org/1999/xlink" x="0px" y="0px"
	 viewBox="0 0 179.6 53.8" style="enable-background:new 0 0 179.6 53.8;" xml:space="preserve">
<style type="text/css">
	.st0{fill:#25303F;}
	.st1{enable-background:new    ;}
</style>
<g>
	<g id="svg_5">
		<path id="svg_4" class="st0" d="M31.1,3.5C18.2,3.5,7.7,14,7.7,26.9s10.5,23.4,23.4,23.4s23.4-10.5,23.4-23.4S44,3.5,31.1,3.5z
			 M38.9,14.3c4.5,0,8.1,3.7,8.1,8.2s-3.7,8.1-8.2,8.1s-8.1-3.7-8.1-8.1C30.7,18,34.8,18.6,38.9,14.3L38.9,14.3z M21.5,20.4
			c3.7,0,6.7-0.1,6.7,3.6s-3,6.7-6.7,6.7s-6.7-3-6.7-6.7S17.8,20.4,21.5,20.4L21.5,20.4z M12.9,34.7c2.8-1.5,6.3-2.2,8.5-2.2
			c1.7,0,3.9,0.3,6,1.1c-1.4,0.8-2.7,1.8-3.8,3c-1.5,1.7-2.3,3.7-2.3,5.7V44C17.6,41.9,14.7,38.6,12.9,34.7L12.9,34.7z M31.1,46.7
			c-2.3,0-4.5-0.4-6.7-1.2v-3c0-5.9,9.6-8.9,14.5-8.9c2.6,0,6.6,0.9,9.7,2.6C45.1,42.6,38.4,46.7,31.1,46.7L31.1,46.7z"/>
	</g>
	<g class="st1">
		<path class="st0" d="M61.5,26.5h2.3v15.2h8.6v2.1h-11V26.5z"/>
		<path class="st0" d="M81.3,36.1c0.5-0.1,0.8-0.3,1-0.6c0.1-0.2,0.1-0.5,0.1-0.8c0-0.7-0.3-1.2-0.8-1.6s-1.2-0.5-2.2-0.5
			c-1.1,0-1.9,0.3-2.3,0.9c-0.3,0.3-0.4,0.8-0.5,1.5h-2c0-1.6,0.5-2.6,1.5-3.2c1-0.6,2.1-0.9,3.4-0.9c1.5,0,2.7,0.3,3.6,0.8
			c0.9,0.6,1.4,1.4,1.4,2.6v7.2c0,0.2,0,0.4,0.1,0.5c0.1,0.1,0.3,0.2,0.6,0.2c0.1,0,0.2,0,0.3,0s0.2,0,0.4-0.1v1.6
			c-0.3,0.1-0.6,0.2-0.8,0.2s-0.4,0-0.7,0c-0.7,0-1.3-0.3-1.6-0.8c-0.2-0.3-0.3-0.7-0.4-1.2c-0.4,0.6-1,1.1-1.9,1.5
			s-1.7,0.6-2.7,0.6c-1.2,0-2.1-0.4-2.9-1.1S74,41.5,74,40.4c0-1.2,0.4-2.1,1.1-2.7s1.7-1,2.9-1.2L81.3,36.1z M76.9,41.8
			c0.4,0.4,1,0.5,1.6,0.5c0.7,0,1.5-0.2,2.2-0.5c1.2-0.6,1.8-1.5,1.8-2.8v-1.7c-0.3,0.2-0.6,0.3-1,0.4C81,37.9,80.6,38,80.2,38
			l-1.3,0.2c-0.8,0.1-1.3,0.3-1.7,0.5c-0.7,0.4-1,1-1,1.8C76.2,41,76.4,41.5,76.9,41.8z"/>
		<path class="st0" d="M87,42.1l7.5-9h-6.9v-1.9h9.7v1.7l-7.4,8.9h7.6v1.9H87V42.1z"/>
		<path class="st0" d="M107.8,31.2h2.3c-0.3,0.8-1,2.6-2,5.5c-0.8,2.2-1.4,3.9-1.9,5.3c-1.2,3.2-2.1,5.2-2.6,5.9
			c-0.5,0.7-1.4,1.1-2.6,1.1c-0.3,0-0.5,0-0.7,0s-0.4-0.1-0.6-0.1v-1.9c0.4,0.1,0.6,0.2,0.8,0.2c0.2,0,0.3,0,0.4,0
			c0.4,0,0.7-0.1,0.9-0.2c0.2-0.1,0.3-0.3,0.5-0.5c0-0.1,0.2-0.4,0.4-1c0.2-0.6,0.4-1,0.5-1.3l-4.6-12.9h2.4l3.4,10.2L107.8,31.2z"
			/>
		<path class="st0" d="M114.7,26.5v10.6c0,1.2,0.2,2.3,0.7,3.1c0.7,1.2,1.9,1.9,3.5,1.9c2,0,3.3-0.7,4.1-2c0.4-0.7,0.6-1.7,0.6-3
			V26.5h2.4v9.7c0,2.1-0.3,3.7-0.9,4.9c-1.1,2.1-3,3.1-6,3.1s-4.9-1-5.9-3.1c-0.6-1.1-0.9-2.8-0.9-4.9v-9.7H114.7z"/>
		<path class="st0" d="M129.2,31.2h2V33c0.6-0.7,1.2-1.3,1.9-1.6s1.4-0.5,2.2-0.5c1.8,0,3,0.6,3.6,1.9c0.3,0.7,0.5,1.7,0.5,2.9v8.1
			h-2.1v-7.9c0-0.8-0.1-1.4-0.3-1.9c-0.4-0.8-1.1-1.2-2-1.2c-0.5,0-0.9,0.1-1.2,0.2c-0.6,0.2-1.1,0.5-1.5,1
			c-0.4,0.4-0.6,0.8-0.7,1.3s-0.2,1.1-0.2,1.9v6.6h-2.1V31.2z"/>
		<path class="st0" d="M150.9,31.9c0.9,0.7,1.4,1.9,1.6,3.6h-2.1c-0.1-0.8-0.4-1.4-0.9-1.9s-1.2-0.8-2.1-0.8c-1.3,0-2.3,0.7-2.9,2
			c-0.4,0.8-0.6,1.9-0.6,3.1c0,1.3,0.3,2.3,0.8,3.2s1.4,1.3,2.5,1.3c0.9,0,1.6-0.3,2.1-0.8s0.9-1.3,1.1-2.2h2.1
			c-0.2,1.7-0.8,2.9-1.8,3.7s-2.1,1.2-3.6,1.2c-1.6,0-2.9-0.6-3.9-1.8s-1.5-2.7-1.5-4.5c0-2.2,0.5-3.9,1.6-5.1s2.4-1.8,4.1-1.8
			C148.9,30.8,150,31.2,150.9,31.9z"/>
		<path class="st0" d="M154.7,26.5h2.1v17.2h-2.1V26.5z"/>
		<path class="st0" d="M167.7,31.5c0.8,0.4,1.5,1,1.9,1.6c0.4,0.6,0.7,1.4,0.8,2.2c0.1,0.6,0.2,1.5,0.2,2.8h-9.1
			c0,1.3,0.3,2.3,0.9,3.1c0.6,0.8,1.4,1.2,2.6,1.2c1.1,0,2-0.4,2.6-1.1c0.4-0.4,0.6-0.9,0.8-1.5h2.1c-0.1,0.5-0.2,1-0.5,1.5
			s-0.7,1-1,1.4c-0.6,0.6-1.4,1-2.4,1.3c-0.5,0.1-1.1,0.2-1.7,0.2c-1.6,0-2.9-0.6-3.9-1.7s-1.6-2.7-1.6-4.8c0-2,0.5-3.7,1.6-4.9
			s2.5-1.9,4.3-1.9C166,30.9,166.9,31.1,167.7,31.5z M168.4,36.5c-0.1-0.9-0.3-1.6-0.6-2.2c-0.6-1-1.5-1.5-2.9-1.5
			c-1,0-1.8,0.3-2.4,1c-0.7,0.7-1,1.6-1,2.7H168.4z"/>
	</g>
</g>
</svg>
