<svg xmlns="http://www.w3.org/2000/svg" xmlns:xlink="http://www.w3.org/1999/xlink" id="Layer_1" x="0" y="0" version="1.1" viewBox="0 0 60 60" xml:space="preserve" style="enable-background:new 0 0 60 60"><style type="text/css">.st0{fill:#25303f}</style><g id="svg_5"><path id="svg_4" d="M29.9,2.2C14.7,2.2,2.4,14.5,2.4,29.7s12.3,27.5,27.5,27.5s27.5-12.3,27.5-27.5S45.1,2.2,29.9,2.2z M39.1,14.9c5.3,0,9.5,4.3,9.5,9.6S44.2,34,38.9,34s-9.5-4.3-9.5-9.5C29.4,19.2,34.2,19.9,39.1,14.9L39.1,14.9z M18.6,22 c4.3,0,7.9-0.1,7.9,4.2s-3.5,7.9-7.9,7.9s-7.9-3.5-7.9-7.9S14.3,22,18.6,22L18.6,22z M8.5,38.8c3.3-1.8,7.4-2.6,10-2.6 c2,0,4.6,0.4,7.1,1.3c-1.6,0.9-3.2,2.1-4.5,3.5c-1.8,2-2.7,4.3-2.7,6.7v2C14,47.3,10.6,43.4,8.5,38.8L8.5,38.8z M29.9,52.9 c-2.7,0-5.3-0.5-7.9-1.4V48c0-6.9,11.3-10.5,17-10.5c3.1,0,7.8,1.1,11.4,3.1C46.3,48.1,38.5,52.9,29.9,52.9L29.9,52.9z" class="st0"/></g></svg>