<svg enable-background="new 0 0 810 240" viewBox="0 0 810 240" xmlns="http://www.w3.org/2000/svg"><g fill="#f0fdfa"><path d="m120.1 6c-62.6 0-113.6 51-113.6 113.5s51 113.5 113.6 113.5 113.5-51 113.5-113.5-51-113.5-113.5-113.5zm37.8 52.4c21.8 0 39.3 18 39.3 39.8s-18 39.3-39.8 39.3-39.3-18-39.3-39.3c0-21.9 19.8-18.9 39.8-39.8zm-84.4 29.6c18 0 32.5-.5 32.5 17.5s-14.5 32.5-32.5 32.5-32.5-14.5-32.5-32.5 14.5-17.5 32.5-17.5zm-41.7 69.3c13.6-7.3 30.6-10.7 41.2-10.7 8.3 0 18.9 1.5 29.1 5.3-6.8 3.9-13.1 8.7-18.4 14.5-7.3 8.3-11.2 18-11.2 27.6v8.3c-18-10.1-32-26.1-40.7-45zm88.3 58.2c-11.2 0-21.8-2-32.5-5.8v-14.5c0-28.6 46.6-43.1 70.3-43.1 12.6 0 32 4.3 47.1 12.6-17.1 30.9-49.6 50.8-84.9 50.8z"/><g enable-background="new"><path d="m277.4 72h11.2v73.7h41.7v10.2h-53.3v-83.8z"/><path d="m373.5 118.5c2.5-.5 3.9-1.5 4.8-2.9.5-1 .5-2.5.5-3.9 0-3.4-1.5-5.8-3.9-7.8-2.5-2-5.8-2.5-10.7-2.5-5.3 0-9.2 1.5-11.2 4.3-1.5 1.5-2 3.9-2.5 7.3h-9.7c0-7.8 2.5-12.6 7.3-15.5s10.2-4.3 16.5-4.3c7.3 0 13.1 1.5 17.5 3.9 4.3 2.9 6.8 6.8 6.8 12.6v34.9c0 1 0 2 .5 2.5s1.5 1 2.9 1h1.5s1 0 2-.5v7.8c-1.5.5-2.9 1-3.9 1s-2 0-3.4 0c-3.4 0-6.3-1.5-7.8-3.9-1-1.5-1.5-3.4-2-5.8-2 2.9-4.8 5.3-9.2 7.3-4.3 2-8.3 2.9-13.1 2.9-5.8 0-10.2-2-14-5.3s-4.3-6.8-4.3-12.1c0-5.8 2-10.2 5.3-13.1 3.4-2.9 8.3-4.8 14-5.8zm-21.3 27.6c2 2 4.8 2.5 7.8 2.5 3.4 0 7.3-1 10.7-2.5 5.8-2.9 8.7-7.3 8.7-13.6v-8.3c-1.5 1-2.9 1.5-4.8 2-2.5 1-4.3 1.5-6.3 1.5l-6.3 1c-3.9.5-6.3 1.5-8.3 2.5-3.4 2-4.8 4.8-4.8 8.7-.2 2.4.8 4.8 3.3 6.2z"/><path d="m401.1 147.6 36.3-43.6h-33.5v-9.2h47.1v8.3l-35.9 43.1h36.8v9.2h-50.9z"/><path d="m502 94.8h11.2c-1.5 3.9-4.8 12.6-9.7 26.7-3.9 10.7-6.8 18.9-9.2 25.7-5.8 15.5-10.2 25.2-12.6 28.6-2.5 3.4-6.8 5.3-12.6 5.3-1.5 0-2.5 0-3.4 0-1 0-2-.5-2.9-.5v-9.2c2 .5 2.9 1 3.9 1s1.5 0 2 0c2 0 3.4-.5 4.3-1 1-.5 1.5-1.5 2.5-2.5 0-.5 1-2 2-4.8 1-2.9 2-4.8 2.5-6.3l-22.5-62.6h11.6l16.5 49.5z"/><path d="m535.5 72v51.4c0 5.8 1 11.2 3.4 15 3.4 5.8 9.2 9.2 17 9.2 9.7 0 16-3.4 19.9-9.7 2-3.4 2.9-8.3 2.9-14.5v-51.4h11.6v47c0 10.2-1.5 18-4.3 23.8-5.3 10.2-14.5 15-29.1 15s-23.8-4.8-28.6-15c-2.9-5.3-4.3-13.6-4.3-23.8v-47z"/><path d="m605.7 94.8h9.7v8.7c2.9-3.4 5.8-6.3 9.2-7.8s6.8-2.5 10.7-2.5c8.7 0 14.5 2.9 17.5 9.2 1.5 3.4 2.5 8.3 2.5 14v39.3h-10.2v-38.3c0-3.9-.5-6.8-1.5-9.2-2-3.9-5.3-5.8-9.7-5.8-2.5 0-4.3.5-5.8 1-2.9 1-5.3 2.5-7.3 4.8-2 2-2.9 3.9-3.4 6.3-.5 2.5-1 5.3-1 9.2v32h-10.2v-61.1h-.5z"/><path d="m711 98.1c4.3 3.4 6.8 9.2 7.8 17.5h-10.2c-.5-3.9-2-6.8-4.3-9.2-2.5-2.5-5.8-3.9-10.2-3.9-6.3 0-11.2 3.4-14 9.7-2 3.9-2.9 9.2-2.9 15 0 6.3 1.5 11.2 3.9 15.5s6.8 6.3 12.1 6.3c4.3 0 7.8-1.5 10.2-3.9 2.5-2.5 4.3-6.3 5.3-10.7h10.2c-1 8.3-3.9 14-8.7 18-4.8 3.9-10.2 5.8-17.5 5.8-7.8 0-14-2.9-18.9-8.7s-7.3-13.1-7.3-21.8c0-10.7 2.5-18.9 7.8-24.8s11.6-8.7 19.9-8.7c7.1-1.4 12.4.6 16.8 3.9z"/><path d="m729.4 72h10.2v83.4h-10.2z"/><path d="m792.4 96.2c3.9 2 7.3 4.8 9.2 7.8 1.9 2.9 3.4 6.8 3.9 10.7.5 2.9 1 7.3 1 13.6h-44.1c0 6.3 1.5 11.2 4.3 15 2.9 3.9 6.8 5.8 12.6 5.8 5.3 0 9.7-2 12.6-5.3 2-2 2.9-4.3 3.9-7.3h10.2c-.5 2.5-1 4.8-2.5 7.3s-3.4 4.8-4.8 6.8c-2.9 2.9-6.8 4.8-11.6 6.3-2.5.5-5.3 1-8.3 1-7.8 0-14-2.9-18.9-8.3-4.8-5.3-7.8-13.1-7.8-23.3 0-9.7 2.5-18 7.8-23.8s12.1-9.2 20.8-9.2c3.5 0 7.9 1 11.7 2.9zm3.5 24.2c-.5-4.3-1.5-7.8-2.9-10.7-2.9-4.8-7.3-7.3-14-7.3-4.8 0-8.7 1.5-11.6 4.8-3.4 3.4-4.8 7.8-4.8 13.1z"/></g></g></svg>