<svg xmlns="http://www.w3.org/2000/svg" xmlns:xlink="http://www.w3.org/1999/xlink" id="Layer_1" x="0" y="0" version="1.1" viewBox="0 0 1200 630" xml:space="preserve" style="enable-background:new 0 0 1200 630"><style type="text/css">.st0{fill:#fff}.st1{fill:#1d293b}.st2{fill:#f0fdfa}.st3{fill:#1e293b}.st4{fill:#0c9488}.st5{enable-background:new}.st6{fill:#0f5e5a}</style><rect width="1200" height="630" class="st0"/><g><g><path d="M114.9,576.8c-3.2,0-5.7-2.6-5.7-5.7V110.9c0-14.2,11.5-25.7,25.7-25.7h962.3c14.2,0,25.7,11.5,25.7,25.7V571 c0,3.2-2.6,5.8-5.7,5.8H114.9L114.9,576.8z" class="st1"/><path d="M1097.2,88.2c12.5,0,22.7,10.2,22.7,22.7V571c0,1.5-1.2,2.7-2.7,2.7H114.9c-1.5,0-2.7-1.2-2.7-2.7V110.9 c0-12.5,10.2-22.7,22.7-22.7H1097.2 M1097.2,82.2H134.8c-15.8,0-28.7,12.9-28.7,28.7V571c0,4.8,3.9,8.7,8.7,8.7H1117 c4.8,0,8.7-3.9,8.7-8.7V110.9C1125.8,95.1,1113,82.2,1097.2,82.2L1097.2,82.2z" class="st1"/></g><g><path d="M98.9,560.8c-3.2,0-5.7-2.6-5.7-5.7V94.9c0-14.2,11.5-25.7,25.7-25.7h962.3c14.2,0,25.7,11.5,25.7,25.7V555 c0,3.2-2.6,5.8-5.7,5.8H98.9L98.9,560.8z" class="st2"/><path d="M1081.2,72.2c12.5,0,22.7,10.2,22.7,22.7V555c0,1.5-1.2,2.7-2.7,2.7H98.9c-1.5,0-2.7-1.2-2.7-2.7V94.9 c0-12.5,10.2-22.7,22.7-22.7H1081.2 M1081.2,66.2H118.8c-15.8,0-28.7,12.9-28.7,28.7V555c0,4.8,3.9,8.7,8.7,8.7H1101 c4.8,0,8.7-3.9,8.7-8.7V94.9C1109.8,79.1,1097,66.2,1081.2,66.2L1081.2,66.2z" class="st3"/></g></g><g><g><g><g id="svg_5_00000003065398194881900980000004921015073575574192_"><path id="svg_4_00000112629343312067165230000010690019653576829316_" d="M366.3,197c-52.3,0-94.9,42.6-94.9,94.9 s42.6,94.9,94.9,94.9s94.9-42.6,94.9-94.9S418.6,197,366.3,197z M398,240.8c18.3,0,32.9,15,32.9,33.3s-15,32.9-33.3,32.9 s-32.9-15-32.9-32.9C364.7,255.8,381.3,258.2,398,240.8L398,240.8z M327.4,265.5c15,0,27.2-0.4,27.2,14.6s-12.2,27.2-27.2,27.2 s-27.2-12.2-27.2-27.2S312.3,265.5,327.4,265.5L327.4,265.5z M292.5,323.5c11.4-6.1,25.6-8.9,34.5-8.9c6.9,0,15.8,1.2,24.3,4.5 c-5.7,3.2-11,7.3-15.4,12.2c-6.1,6.9-9.3,15-9.3,23.1v6.9C311.5,352.8,299.8,339.4,292.5,323.5L292.5,323.5z M366.3,372.2 c-9.3,0-18.3-1.6-27.2-4.9v-12.2c0-23.9,39-36.1,58.8-36.1c10.5,0,26.8,3.6,39.4,10.5C423.1,355.6,395.9,372.2,366.3,372.2 L366.3,372.2z" class="st4"/></g><g class="st5"><path d="M489.6,290.3h9.3V352h34.9v8.5h-44.6v-70.2H489.6z" class="st6"/><path d="M570,329.2c2-0.4,3.2-1.2,4.1-2.4c0.4-0.8,0.4-2,0.4-3.2c0-2.8-1.2-4.9-3.2-6.5s-4.9-2-8.9-2 c-4.5,0-7.7,1.2-9.3,3.6c-1.2,1.2-1.6,3.2-2,6.1H543c0-6.5,2-10.5,6.1-13c4.1-2.4,8.5-3.6,13.8-3.6c6.1,0,11,1.2,14.6,3.2 c3.7,2.4,5.7,5.7,5.7,10.5v29.2c0,0.8,0,1.6,0.4,2s1.2,0.8,2.4,0.8c0.4,0,0.8,0,1.2,0s0.8,0,1.6-0.4v6.5 c-1.2,0.4-2.4,0.8-3.2,0.8s-1.6,0-2.8,0c-2.8,0-5.3-1.2-6.5-3.2c-0.8-1.2-1.2-2.8-1.6-4.9c-1.6,2.4-4.1,4.5-7.7,6.1 c-3.7,1.6-6.9,2.4-11,2.4c-4.9,0-8.5-1.6-11.8-4.5s-3.7-5.7-3.7-10.1c0-4.9,1.6-8.5,4.5-11c2.8-2.4,6.9-4.1,11.8-4.9L570,329.2z M552.1,352.4c1.6,1.6,4.1,2,6.5,2c2.8,0,6.1-0.8,8.9-2c4.9-2.4,7.3-6.1,7.3-11.4v-6.9c-1.2,0.8-2.4,1.2-4.1,1.6 c-2,0.8-3.7,1.2-5.3,1.2l-5.3,0.8c-3.2,0.4-5.3,1.2-6.9,2c-2.8,1.6-4.1,4.1-4.1,7.3C549.3,349.1,550.1,351.1,552.1,352.4z" class="st6"/><path d="M593.1,353.6l30.4-36.5h-28v-7.7h39.4v6.9l-30,36.1h30.8v7.7h-42.6L593.1,353.6L593.1,353.6z" class="st6"/><path d="M677.5,309.4h9.3c-1.2,3.2-4.1,10.5-8.1,22.3c-3.2,8.9-5.7,15.8-7.7,21.5c-4.9,13-8.5,21.1-10.5,23.9 s-5.7,4.5-10.5,4.5c-1.2,0-2,0-2.8,0s-1.6-0.4-2.4-0.4v-7.7c1.6,0.4,2.4,0.8,3.2,0.8s1.2,0,1.6,0c1.6,0,2.8-0.4,3.7-0.8 s1.2-1.2,2-2c0-0.4,0.8-1.6,1.6-4.1s1.6-4.1,2-5.3l-18.7-52.3h9.7l13.8,41.4L677.5,309.4z" class="st6"/><path d="M705.5,290.3v43c0,4.9,0.8,9.3,2.8,12.6c2.8,4.9,7.7,7.7,14.2,7.7c8.1,0,13.4-2.8,16.6-8.1 c1.6-2.8,2.4-6.9,2.4-12.2v-43h9.7v39.4c0,8.5-1.2,15-3.7,19.9c-4.5,8.5-12.2,12.6-24.3,12.6s-19.9-4.1-23.9-12.6 c-2.4-4.5-3.7-11.4-3.7-19.9v-39.4H705.5L705.5,290.3z" class="st6"/><path d="M764.3,309.4h8.1v7.3c2.4-2.8,4.9-5.3,7.7-6.5s5.7-2,8.9-2c7.3,0,12.2,2.4,14.6,7.7c1.2,2.8,2,6.9,2,11.8 v32.9h-8.5v-32c0-3.2-0.4-5.7-1.2-7.7c-1.6-3.2-4.5-4.9-8.1-4.9c-2,0-3.7,0.4-4.9,0.8c-2.4,0.8-4.5,2-6.1,4.1 c-1.6,1.6-2.4,3.2-2.8,5.3c-0.4,2-0.8,4.5-0.8,7.7v26.8h-8.5v-51.1L764.3,309.4L764.3,309.4z" class="st6"/><path d="M852.4,312.2c3.7,2.8,5.7,7.7,6.5,14.6h-8.5c-0.4-3.2-1.6-5.7-3.7-7.7s-4.9-3.2-8.5-3.2 c-5.3,0-9.3,2.8-11.8,8.1c-1.6,3.2-2.4,7.7-2.4,12.6c0,5.3,1.2,9.3,3.2,13c2,3.6,5.7,5.3,10.1,5.3c3.7,0,6.5-1.2,8.5-3.2 s3.7-5.3,4.5-8.9h8.5c-0.8,6.9-3.2,11.8-7.3,15s-8.5,4.9-14.6,4.9c-6.5,0-11.8-2.4-15.8-7.3c-4.1-4.9-6.1-11-6.1-18.3 c0-8.9,2-15.8,6.5-20.7c4.5-4.9,9.7-7.3,16.6-7.3C844.2,307.7,848.7,309.4,852.4,312.2z" class="st6"/><path d="M867.8,290.3h8.5v69.8h-8.5V290.3z" class="st6"/><path d="M920.5,310.6c3.2,1.6,6.1,4.1,7.7,6.5s2.8,5.7,3.2,8.9c0.4,2.4,0.8,6.1,0.8,11.4h-36.9 c0,5.3,1.2,9.3,3.7,12.6c2.4,3.2,5.7,4.9,10.5,4.9c4.5,0,8.1-1.6,10.5-4.5c1.6-1.6,2.4-3.6,3.2-6.1h8.5c-0.4,2-0.8,4.1-2,6.1 s-2.8,4.1-4.1,5.7c-2.4,2.4-5.7,4.1-9.7,5.3c-2,0.4-4.5,0.8-6.9,0.8c-6.5,0-11.8-2.4-15.8-6.9c-4.1-4.5-6.5-11-6.5-19.5 c0-8.1,2-15,6.5-19.9s10.1-7.7,17.5-7.7C913.6,308.1,917.3,308.9,920.5,310.6z M923.4,330.9c-0.4-3.6-1.2-6.5-2.4-8.9 c-2.4-4.1-6.1-6.1-11.8-6.1c-4.1,0-7.3,1.2-9.7,4.1c-2.8,2.8-4.1,6.5-4.1,11L923.4,330.9L923.4,330.9z" class="st6"/></g></g></g></g></svg>