<svg enable-background="new 0 0 1200 630" viewBox="0 0 1200 630" xmlns="http://www.w3.org/2000/svg"><path d="m0 0h1200v630h-1200z" fill="#fff"/><path d="m114.9 576.8c-3.2 0-5.7-2.6-5.7-5.7v-460.2c0-14.2 11.5-25.7 25.7-25.7h962.3c14.2 0 25.7 11.5 25.7 25.7v460.1c0 3.2-2.6 5.8-5.7 5.8z" fill="#006368"/><path d="m1097.2 88.2c12.5 0 22.7 10.2 22.7 22.7v460.1c0 1.5-1.2 2.7-2.7 2.7h-1002.3c-1.5 0-2.7-1.2-2.7-2.7v-460.1c0-12.5 10.2-22.7 22.7-22.7zm0-6h-962.4c-15.8 0-28.7 12.9-28.7 28.7v460.1c0 4.8 3.9 8.7 8.7 8.7h1002.2c4.8 0 8.7-3.9 8.7-8.7v-460.1c.1-15.8-12.7-28.7-28.5-28.7z" fill="#006368"/><path d="m98.9 560.8c-3.2 0-5.7-2.6-5.7-5.7v-460.2c0-14.2 11.5-25.7 25.7-25.7h962.3c14.2 0 25.7 11.5 25.7 25.7v460.1c0 3.2-2.6 5.8-5.7 5.8z" fill="#fff"/><path d="m1081.2 72.2c12.5 0 22.7 10.2 22.7 22.7v460.1c0 1.5-1.2 2.7-2.7 2.7h-1002.3c-1.5 0-2.7-1.2-2.7-2.7v-460.1c0-12.5 10.2-22.7 22.7-22.7zm0-6h-962.4c-15.8 0-28.7 12.9-28.7 28.7v460.1c0 4.8 3.9 8.7 8.7 8.7h1002.2c4.8 0 8.7-3.9 8.7-8.7v-460.1c.1-15.8-12.7-28.7-28.5-28.7z" fill="#1e293b"/><g fill="#006368"><path d="m366.3 197c-52.3 0-94.9 42.6-94.9 94.9s42.6 94.9 94.9 94.9 94.9-42.6 94.9-94.9-42.6-94.9-94.9-94.9zm31.7 43.8c18.3 0 32.9 15 32.9 33.3s-15 32.9-33.3 32.9-32.9-15-32.9-32.9c0-18.3 16.6-15.9 33.3-33.3zm-70.6 24.7c15 0 27.2-.4 27.2 14.6s-12.2 27.2-27.2 27.2-27.2-12.2-27.2-27.2 12.1-14.6 27.2-14.6zm-34.9 58c11.4-6.1 25.6-8.9 34.5-8.9 6.9 0 15.8 1.2 24.3 4.5-5.7 3.2-11 7.3-15.4 12.2-6.1 6.9-9.3 15-9.3 23.1v6.9c-15.1-8.5-26.8-21.9-34.1-37.8zm73.8 48.7c-9.3 0-18.3-1.6-27.2-4.9v-12.2c0-23.9 39-36.1 58.8-36.1 10.5 0 26.8 3.6 39.4 10.5-14.2 26.1-41.4 42.7-71 42.7z"/><g enable-background="new"><path d="m489.6 290.3h9.3v61.7h34.9v8.5h-44.6v-70.2z"/><path d="m570 329.2c2-.4 3.2-1.2 4.1-2.4.4-.8.4-2 .4-3.2 0-2.8-1.2-4.9-3.2-6.5s-4.9-2-8.9-2c-4.5 0-7.7 1.2-9.3 3.6-1.2 1.2-1.6 3.2-2 6.1h-8.1c0-6.5 2-10.5 6.1-13 4.1-2.4 8.5-3.6 13.8-3.6 6.1 0 11 1.2 14.6 3.2 3.7 2.4 5.7 5.7 5.7 10.5v29.2c0 .8 0 1.6.4 2s1.2.8 2.4.8h1.2s.8 0 1.6-.4v6.5c-1.2.4-2.4.8-3.2.8s-1.6 0-2.8 0c-2.8 0-5.3-1.2-6.5-3.2-.8-1.2-1.2-2.8-1.6-4.9-1.6 2.4-4.1 4.5-7.7 6.1-3.7 1.6-6.9 2.4-11 2.4-4.9 0-8.5-1.6-11.8-4.5s-3.7-5.7-3.7-10.1c0-4.9 1.6-8.5 4.5-11 2.8-2.4 6.9-4.1 11.8-4.9zm-17.9 23.2c1.6 1.6 4.1 2 6.5 2 2.8 0 6.1-.8 8.9-2 4.9-2.4 7.3-6.1 7.3-11.4v-6.9c-1.2.8-2.4 1.2-4.1 1.6-2 .8-3.7 1.2-5.3 1.2l-5.3.8c-3.2.4-5.3 1.2-6.9 2-2.8 1.6-4.1 4.1-4.1 7.3.2 2.1 1 4.1 3 5.4z"/><path d="m593.1 353.6 30.4-36.5h-28v-7.7h39.4v6.9l-30 36.1h30.8v7.7h-42.6z"/><path d="m677.5 309.4h9.3c-1.2 3.2-4.1 10.5-8.1 22.3-3.2 8.9-5.7 15.8-7.7 21.5-4.9 13-8.5 21.1-10.5 23.9s-5.7 4.5-10.5 4.5c-1.2 0-2 0-2.8 0s-1.6-.4-2.4-.4v-7.7c1.6.4 2.4.8 3.2.8s1.2 0 1.6 0c1.6 0 2.8-.4 3.7-.8s1.2-1.2 2-2c0-.4.8-1.6 1.6-4.1s1.6-4.1 2-5.3l-18.7-52.3h9.7l13.8 41.4z"/><path d="m705.5 290.3v43c0 4.9.8 9.3 2.8 12.6 2.8 4.9 7.7 7.7 14.2 7.7 8.1 0 13.4-2.8 16.6-8.1 1.6-2.8 2.4-6.9 2.4-12.2v-43h9.7v39.4c0 8.5-1.2 15-3.7 19.9-4.5 8.5-12.2 12.6-24.3 12.6s-19.9-4.1-23.9-12.6c-2.4-4.5-3.7-11.4-3.7-19.9v-39.4z"/><path d="m764.3 309.4h8.1v7.3c2.4-2.8 4.9-5.3 7.7-6.5s5.7-2 8.9-2c7.3 0 12.2 2.4 14.6 7.7 1.2 2.8 2 6.9 2 11.8v32.9h-8.5v-32c0-3.2-.4-5.7-1.2-7.7-1.6-3.2-4.5-4.9-8.1-4.9-2 0-3.7.4-4.9.8-2.4.8-4.5 2-6.1 4.1-1.6 1.6-2.4 3.2-2.8 5.3-.4 2-.8 4.5-.8 7.7v26.8h-8.5v-51.1z"/><path d="m852.4 312.2c3.7 2.8 5.7 7.7 6.5 14.6h-8.5c-.4-3.2-1.6-5.7-3.7-7.7s-4.9-3.2-8.5-3.2c-5.3 0-9.3 2.8-11.8 8.1-1.6 3.2-2.4 7.7-2.4 12.6 0 5.3 1.2 9.3 3.2 13 2 3.6 5.7 5.3 10.1 5.3 3.7 0 6.5-1.2 8.5-3.2s3.7-5.3 4.5-8.9h8.5c-.8 6.9-3.2 11.8-7.3 15s-8.5 4.9-14.6 4.9c-6.5 0-11.8-2.4-15.8-7.3-4.1-4.9-6.1-11-6.1-18.3 0-8.9 2-15.8 6.5-20.7s9.7-7.3 16.6-7.3c6.1-1.4 10.6.3 14.3 3.1z"/><path d="m867.8 290.3h8.5v69.8h-8.5z"/><path d="m920.5 310.6c3.2 1.6 6.1 4.1 7.7 6.5s2.8 5.7 3.2 8.9c.4 2.4.8 6.1.8 11.4h-36.9c0 5.3 1.2 9.3 3.7 12.6 2.4 3.2 5.7 4.9 10.5 4.9 4.5 0 8.1-1.6 10.5-4.5 1.6-1.6 2.4-3.6 3.2-6.1h8.5c-.4 2-.8 4.1-2 6.1s-2.8 4.1-4.1 5.7c-2.4 2.4-5.7 4.1-9.7 5.3-2 .4-4.5.8-6.9.8-6.5 0-11.8-2.4-15.8-6.9-4.1-4.5-6.5-11-6.5-19.5 0-8.1 2-15 6.5-19.9s10.1-7.7 17.5-7.7c2.9-.1 6.6.7 9.8 2.4zm2.9 20.3c-.4-3.6-1.2-6.5-2.4-8.9-2.4-4.1-6.1-6.1-11.8-6.1-4.1 0-7.3 1.2-9.7 4.1-2.8 2.8-4.1 6.5-4.1 11z"/></g></g></svg>