<svg xmlns="http://www.w3.org/2000/svg" width="1365.333" height="1365.333" preserveAspectRatio="xMidYMid meet" version="1.0" viewBox="0 0 1024 1024"><metadata>Created by potrace 1.14, written by Peter Selinger 2001-2017</metadata><g fill="#000" stroke="none"><path d="M4875 9209 c-866 -55 -1634 -350 -2310 -888 -142 -113 -391 -353 -521 -504 -637 -734 -984 -1667 -984 -2647 0 -763 212 -1505 613 -2145 390 -621 943 -1127 1596 -1459 482 -244 960 -379 1517 -426 180 -16 609 -8 799 15 1088 128 2092 707 2754 1590 317 422 550 907 681 1420 150 590 167 1192 49 1791 -282 1437 -1323 2610 -2719 3063 -477 154 -995 221 -1475 190z m1703 -1869 c347 -37 619 -165 857 -404 124 -124 189 -214 263 -361 59 -118 95 -220 124 -353 31 -139 32 -424 1 -562 -127 -568 -563 -989 -1138 -1096 -149 -28 -394 -26 -540 5 -558 118 -973 541 -1091 1111 -25 121 -26 367 -1 473 29 123 86 226 176 315 94 95 168 146 431 298 350 201 498 304 700 488 58 52 110 95 115 95 6 1 52 -4 103 -9z m-2528 -1059 c306 -52 455 -158 522 -372 32 -103 33 -350 1 -479 -91 -363 -314 -638 -646 -795 -156 -74 -254 -96 -452 -102 -157 -5 -179 -3 -282 20 -457 104 -791 442 -889 899 -23 107 -29 273 -14 365 48 299 219 432 605 473 115 12 1075 4 1155 -9z m-319 -2086 c223 -26 530 -95 683 -153 l48 -19 -63 -38 c-235 -140 -500 -361 -639 -530 -166 -203 -268 -411 -321 -653 -17 -77 -22 -144 -26 -329 -3 -128 -8 -233 -12 -233 -11 0 -196 115 -284 176 -154 107 -272 208 -433 369 -218 218 -366 406 -529 675 -58 95 -195 355 -195 369 0 9 184 98 283 138 262 105 591 191 879 227 143 19 455 19 609 1z m2957 -185 c326 -35 695 -127 1024 -256 140 -54 384 -169 394 -185 8 -14 -126 -234 -224 -368 -287 -395 -637 -716 -1042 -958 -811 -485 -1781 -608 -2685 -342 -71 21 -148 44 -170 52 l-40 14 1 329 c1 328 1 329 28 419 60 201 146 338 320 510 168 166 345 289 601 414 377 185 867 326 1280 370 117 12 401 13 513 1z" transform="translate(0.000000,1024.000000) scale(0.100000,-0.100000)"/></g></svg>