<?xml version="1.0" standalone="no"?>
<!DOCTYPE svg PUBLIC "-//W3C//DTD SVG 20010904//EN"
 "http://www.w3.org/TR/2001/REC-SVG-20010904/DTD/svg10.dtd">
<svg version="1.0" xmlns="http://www.w3.org/2000/svg"
 width="1024.000000pt" height="1024.000000pt" viewBox="0 0 1024.000000 1024.000000"
 preserveAspectRatio="xMidYMid meet">
<metadata>
Created by potrace 1.14, written by Peter Selinger 2001-2017
</metadata>
<g transform="translate(0.000000,1024.000000) scale(0.100000,-0.100000)"
fill="#000000" stroke="none">
<path d="M4897 9474 c-1 -1 -60 -4 -132 -8 -71 -3 -141 -8 -155 -10 -14 -3
-47 -7 -75 -10 -130 -14 -420 -64 -490 -86 -16 -5 -41 -11 -55 -14 -102 -20
-430 -125 -539 -172 -29 -13 -57 -24 -61 -24 -9 0 -189 -83 -290 -133 -109
-55 -272 -146 -335 -187 -33 -22 -73 -47 -89 -56 -16 -9 -89 -59 -161 -110
-433 -310 -831 -725 -1118 -1165 -300 -460 -511 -970 -615 -1484 -72 -358 -90
-529 -91 -875 -1 -258 8 -418 34 -590 2 -14 7 -50 10 -80 4 -30 9 -58 11 -61
2 -4 6 -31 10 -60 3 -30 8 -57 10 -60 2 -4 6 -24 10 -44 14 -91 78 -329 133
-493 150 -455 370 -875 659 -1257 42 -55 78 -102 81 -105 3 -3 24 -27 46 -55
178 -223 462 -493 737 -702 90 -67 363 -251 398 -266 8 -4 29 -15 45 -26 78
-48 272 -148 385 -199 86 -38 195 -84 210 -87 8 -2 57 -20 109 -39 161 -61
490 -154 611 -172 19 -3 67 -11 105 -19 71 -14 120 -21 210 -31 28 -3 61 -7
75 -10 151 -25 854 -24 933 1 6 2 39 6 72 9 33 4 69 8 80 10 11 2 41 7 68 10
52 7 242 45 352 71 80 19 316 88 379 111 22 9 66 25 96 36 30 11 64 24 75 28
11 5 65 27 120 50 113 47 386 182 426 211 15 10 30 19 33 19 8 0 179 106 251
156 33 23 88 60 122 84 34 23 113 83 175 133 447 360 802 778 1090 1282 55 97
186 372 236 495 79 197 177 506 207 655 2 11 10 52 18 90 9 39 18 88 21 110 3
22 10 63 16 90 10 56 17 107 25 198 4 34 8 67 10 73 6 19 18 310 18 419 0 106
-11 360 -17 391 -2 11 -7 57 -11 104 -4 47 -9 87 -10 90 -2 3 -6 26 -10 50
-14 104 -58 323 -84 425 -51 193 -61 227 -106 355 -219 628 -558 1171 -1030
1646 -198 199 -371 347 -575 490 -97 68 -214 145 -262 173 -293 168 -430 235
-688 336 -119 47 -328 117 -385 130 -11 2 -45 11 -75 19 -64 18 -259 62 -310
70 -19 3 -46 8 -59 10 -13 3 -49 8 -80 12 -31 3 -59 8 -62 10 -3 1 -32 6 -65
9 -32 3 -72 7 -89 10 -98 13 -576 29 -588 19z m1733 -2018 c294 -26 563 -135
801 -324 174 -138 319 -319 414 -519 60 -124 60 -123 89 -214 118 -369 85
-779 -90 -1131 -262 -526 -813 -852 -1409 -833 -139 4 -153 5 -250 26 -27 6
-59 12 -71 15 -31 6 -131 39 -194 64 -341 134 -661 439 -807 768 -44 99 -50
116 -67 167 -48 152 -70 293 -71 455 0 256 52 408 197 568 83 92 176 157 468
327 396 231 562 350 768 550 71 68 119 99 142 89 3 -1 39 -5 80 -8z m-2830
-1139 c14 -3 54 -8 90 -11 103 -10 228 -45 316 -86 197 -95 298 -282 298 -555
0 -59 -13 -215 -18 -224 -2 -3 -7 -24 -10 -46 -16 -101 -89 -278 -164 -400
-147 -238 -412 -442 -679 -525 -189 -58 -428 -72 -608 -36 -120 25 -284 82
-347 122 -21 13 -40 24 -43 24 -20 0 -177 121 -251 195 -186 185 -294 386
-350 650 -24 116 -25 328 0 437 9 42 31 105 48 139 36 73 123 164 193 203 106
59 269 99 456 112 52 3 95 7 97 9 5 5 946 -3 972 -8z m-350 -2251 c52 -4 106
-8 120 -11 14 -2 48 -7 75 -9 43 -5 129 -17 145 -21 3 -1 23 -5 45 -9 22 -5
78 -17 125 -28 47 -11 90 -21 95 -22 58 -13 285 -90 285 -97 0 -4 -21 -19 -47
-35 -171 -98 -390 -267 -542 -417 -289 -283 -443 -566 -516 -947 -4 -19 -9
-141 -11 -270 -3 -129 -6 -241 -7 -248 -5 -28 -334 193 -527 355 -99 82 -323
300 -400 388 -167 191 -352 451 -472 661 -25 44 -158 303 -158 308 0 8 195 98
315 146 111 44 169 64 346 119 128 40 421 102 544 116 28 3 61 8 75 10 14 3
72 8 130 11 58 4 106 7 107 9 4 3 166 -3 273 -9z m3310 -210 c14 -3 48 -7 76
-10 128 -12 377 -60 534 -102 52 -14 104 -27 115 -30 46 -9 309 -100 425 -146
69 -27 185 -78 258 -114 l132 -64 -21 -41 c-61 -121 -284 -451 -354 -525 -5
-6 -28 -33 -50 -59 -423 -513 -1039 -931 -1686 -1146 -105 -35 -311 -92 -374
-103 -14 -3 -33 -7 -43 -10 -9 -3 -33 -7 -52 -10 -19 -3 -78 -12 -130 -20
-193 -31 -307 -39 -535 -40 -171 0 -366 9 -405 19 -8 2 -40 6 -71 10 -31 3
-67 8 -80 10 -13 3 -41 7 -64 10 -22 3 -47 8 -55 10 -8 2 -31 7 -50 10 -66 11
-306 76 -418 113 l-114 37 5 355 c2 195 7 364 10 375 3 11 10 42 17 70 42 183
157 373 335 551 170 170 342 292 600 424 343 176 801 326 1180 386 22 3 42 7
45 9 3 2 37 6 75 10 39 4 73 9 76 11 3 2 48 6 100 10 52 4 96 8 98 10 6 6 391
-4 421 -10z"/>
</g>
</svg>
