<?xml version="1.0" standalone="no"?>
<!DOCTYPE svg PUBLIC "-//W3C//DTD SVG 20010904//EN"
 "http://www.w3.org/TR/2001/REC-SVG-20010904/DTD/svg10.dtd">
<svg version="1.0" xmlns="http://www.w3.org/2000/svg"
 width="1024.000000pt" height="1024.000000pt" viewBox="0 0 1024.000000 1024.000000"
 preserveAspectRatio="xMidYMid meet">
<metadata>
Created by potrace 1.14, written by Peter Selinger 2001-2017
</metadata>
<g transform="translate(0.000000,1024.000000) scale(0.100000,-0.100000)"
fill="#000000" stroke="none">
<path d="M4937 9864 c-1 -1 -59 -5 -129 -8 -70 -4 -136 -9 -145 -10 -10 -2
-50 -7 -88 -10 -39 -4 -80 -8 -90 -10 -11 -2 -42 -7 -70 -10 -83 -11 -118 -17
-160 -26 -22 -5 -55 -11 -73 -15 -246 -43 -602 -151 -889 -271 -923 -384
-1695 -1052 -2217 -1918 -215 -356 -399 -785 -501 -1172 -31 -115 -82 -337
-89 -389 -4 -22 -11 -65 -16 -95 -5 -30 -12 -75 -15 -100 -4 -25 -8 -59 -11
-76 -8 -52 -13 -105 -19 -204 -4 -52 -8 -108 -10 -125 -5 -34 -5 -460 -1 -520
10 -132 18 -222 21 -235 2 -8 6 -45 10 -82 3 -37 8 -77 10 -90 2 -13 9 -52 15
-88 14 -87 20 -122 25 -140 3 -8 7 -33 11 -55 25 -161 150 -575 241 -800 111
-273 299 -636 399 -772 13 -17 24 -34 24 -37 0 -15 194 -279 298 -407 133
-164 426 -464 582 -596 454 -386 973 -683 1526 -873 118 -40 276 -88 323 -97
14 -2 27 -6 31 -8 8 -5 212 -52 260 -60 19 -3 42 -8 50 -10 8 -2 35 -7 59 -10
23 -3 46 -7 50 -9 3 -2 35 -7 71 -11 36 -4 72 -8 80 -10 13 -2 63 -8 190 -21
196 -20 717 -20 827 0 10 2 54 7 97 11 43 4 87 8 96 10 9 2 41 6 71 10 211 26
564 110 799 190 74 25 140 47 145 49 6 2 19 7 30 11 11 4 54 21 95 37 41 16
99 40 128 53 29 14 55 25 58 25 10 0 305 150 379 192 155 89 318 196 485 317
41 30 77 57 80 60 3 3 25 22 50 40 268 206 612 562 845 876 164 220 364 550
455 750 17 39 46 102 64 140 18 39 41 90 51 115 9 25 24 57 32 73 8 15 12 27
9 27 -3 0 4 21 15 47 49 114 155 465 175 578 3 17 12 55 19 85 8 30 17 75 20
100 3 25 8 52 11 61 5 17 6 28 19 119 4 25 8 56 11 70 2 14 6 52 10 85 3 33 7
71 9 84 25 157 25 716 0 926 -15 128 -27 224 -31 250 -3 17 -7 44 -10 60 -7
42 -23 136 -28 160 -18 88 -63 277 -77 320 -5 17 -27 91 -50 165 -211 693
-639 1393 -1173 1917 -446 438 -959 780 -1506 1003 -58 23 -114 46 -125 51
-134 59 -609 193 -790 223 -45 8 -86 15 -122 21 -77 12 -90 14 -138 20 -27 3
-66 8 -85 10 -166 20 -296 28 -513 29 -103 1 -189 1 -190 0z m1908 -2179 c87
-8 119 -13 228 -41 298 -74 581 -243 787 -470 78 -86 98 -111 137 -171 21 -32
41 -60 44 -63 3 -3 26 -43 52 -90 92 -170 165 -394 183 -559 3 -30 8 -64 10
-75 6 -29 6 -293 0 -314 -3 -9 -7 -39 -10 -67 -17 -152 -70 -322 -153 -489
-82 -163 -170 -284 -308 -422 -211 -211 -470 -358 -765 -435 -230 -59 -567
-63 -780 -8 -242 62 -415 143 -609 287 -81 60 -213 187 -276 267 -22 28 -43
52 -46 55 -15 12 -128 201 -155 260 -62 129 -126 318 -125 365 0 2 -4 19 -10
37 -24 85 -34 394 -15 503 28 167 96 301 213 421 103 106 195 169 473 329 465
266 680 419 914 651 46 46 40 45 211 29z m-3167 -1209 c67 -4 130 -9 140 -10
9 -2 44 -7 77 -11 32 -3 62 -8 65 -10 4 -2 22 -7 41 -10 59 -11 177 -54 233
-85 117 -66 199 -165 243 -292 33 -94 38 -138 38 -313 -1 -119 -5 -172 -24
-255 -79 -360 -301 -674 -613 -868 -60 -37 -100 -58 -213 -107 -75 -34 -206
-68 -310 -81 -74 -10 -271 -11 -345 -2 -296 34 -568 166 -781 378 -181 180
-285 358 -352 600 -37 133 -46 204 -47 360 -1 225 50 380 165 495 133 133 320
194 655 211 63 3 116 7 117 7 5 6 810 -1 911 -7z m-221 -2430 c12 -2 48 -7 80
-11 32 -3 69 -8 83 -10 27 -4 112 -18 120 -20 3 -1 25 -5 50 -9 25 -5 52 -10
61 -11 9 -2 65 -15 125 -29 140 -34 222 -58 374 -112 9 -3 -5 -16 -40 -36 -65
-37 -303 -198 -345 -232 -16 -14 -35 -29 -40 -33 -113 -86 -333 -301 -417
-408 -147 -187 -293 -484 -323 -657 -3 -17 -8 -34 -10 -37 -3 -6 -9 -40 -25
-151 -4 -30 -9 -161 -9 -290 -1 -128 -3 -235 -4 -236 -4 -4 -207 118 -292 176
-71 48 -242 175 -255 189 -3 3 -30 26 -60 51 -62 50 -148 131 -254 237 -230
233 -409 462 -586 753 -76 125 -230 421 -230 441 1 34 457 224 700 292 94 27
242 64 300 76 150 31 336 60 430 67 47 3 87 8 89 10 6 6 451 -3 478 -10z
m3458 -219 c17 -3 57 -8 90 -12 68 -7 73 -8 210 -30 100 -17 313 -63 325 -70
4 -2 19 -6 34 -9 83 -15 450 -130 531 -166 11 -5 61 -26 110 -46 97 -39 373
-172 379 -183 8 -13 -152 -269 -267 -429 -151 -210 -239 -313 -422 -496 -106
-107 -138 -136 -256 -237 -353 -303 -830 -573 -1284 -727 -103 -34 -276 -85
-333 -97 -9 -2 -46 -10 -82 -19 -36 -8 -83 -18 -105 -21 -22 -4 -47 -8 -55
-10 -22 -6 -173 -29 -265 -40 -203 -24 -695 -25 -820 -1 -11 2 -51 7 -90 12
-38 4 -72 9 -75 9 -3 1 -27 5 -55 10 -75 12 -118 20 -215 41 -14 3 -34 7 -45
9 -11 3 -78 21 -150 41 -71 19 -137 37 -145 39 -33 9 -156 51 -165 57 -12 7
-13 642 -1 727 39 278 179 530 422 760 263 249 647 470 1099 633 61 22 115 41
120 42 6 1 55 16 110 34 271 85 601 151 910 181 78 8 443 6 490 -2z"/>
</g>
</svg>
