<?xml version="1.0" encoding="utf-8"?>
<!-- Generator: Adobe Illustrator 26.0.3, SVG Export Plug-In . SVG Version: 6.00 Build 0)  -->
<svg version="1.1" xmlns="http://www.w3.org/2000/svg" xmlns:xlink="http://www.w3.org/1999/xlink" x="0px" y="0px"
	 viewBox="0 0 3200 3200" style="enable-background:new 0 0 3200 3200;" xml:space="preserve">
<style type="text/css">
	.st0{fill:#EDF8FB;}
	.st1{fill:#16B8A6;}
	.st2{fill:#07695A;}
	.st3{font-family:'BrandonGrotesque-Bold';}
	.st4{font-size:180px;}
</style>
<g id="Layer_1">
	<rect class="st0" width="3200" height="3200"/>
</g>
<g id="Layer_2">
	<g id="svg_5">
		<path id="svg_4" class="st1" d="M1600,1154.58c-179.87,0-325.42,145.55-325.42,325.42s145.55,325.42,325.42,325.42
			s325.42-145.55,325.42-325.42S1779.87,1154.58,1600,1154.58z M1708.87,1304.87c62.72,0,112.42,50.88,112.42,113.6
			s-52.07,112.42-114.78,112.42s-112.42-50.88-112.42-112.42C1594.08,1355.75,1650.88,1364.03,1708.87,1304.87L1708.87,1304.87z
			 M1466.28,1388.88c50.88,0,93.48-1.18,93.48,49.7s-41.42,93.48-93.48,93.48c-52.07,0-93.48-41.42-93.48-93.48
			S1415.4,1388.88,1466.28,1388.88L1466.28,1388.88z M1346.77,1587.68c39.05-21.3,87.57-30.77,118.33-30.77
			c23.67,0,54.43,4.73,84.02,15.38c-18.93,10.65-37.87,24.85-53.25,41.42c-21.3,23.67-31.95,50.88-31.95,79.28v23.67
			C1411.85,1688.27,1371.62,1642.12,1346.77,1587.68L1346.77,1587.68z M1600,1754.53c-31.95,0-62.72-5.92-93.48-16.57v-41.42
			c0-81.65,133.72-124.25,201.17-124.25c36.68,0,92.3,13.02,134.9,36.68C1794.07,1697.73,1701.77,1754.53,1600,1754.53L1600,1754.53
			z"/>
	</g>
	<text transform="matrix(1 0 0 1 1210.0359 2043.2214)" class="st2 st3 st4">Lazy Uncle</text>
</g>
</svg>
